<svg width="40" height="40" viewBox="0 0 40 40" fill="none" xmlns="http://www.w3.org/2000/svg">
<rect width="40" height="40" rx="20" fill="#F2F2F2"/>
<path d="M16.25 20C13.25 20 13.25 21.3425 13.25 23V23.75C13.25 25.82 13.25 27.5 17 27.5H23C26 27.5 26.75 25.82 26.75 23.75V23C26.75 21.3425 26.75 20 23.75 20C23 20 22.79 20.1575 22.4 20.45L21.635 21.26C20.75 22.205 19.25 22.205 18.3575 21.26L17.6 20.45C17.21 20.1575 17 20 16.25 20Z" stroke="#222222" stroke-width="1.5" stroke-miterlimit="10" stroke-linecap="round" stroke-linejoin="round"/>
<path d="M25.25 20V15.5C25.25 13.8425 25.25 12.5 22.25 12.5H17.75C14.75 12.5 14.75 13.8425 14.75 15.5V20" stroke="#222222" stroke-width="1.5" stroke-miterlimit="10" stroke-linecap="round" stroke-linejoin="round"/>
<path d="M18.9126 17.9225H21.4101" stroke="#222222" stroke-width="1.5" stroke-linecap="round" stroke-linejoin="round"/>
<path d="M18.29 15.6725H22.0401" stroke="#222222" stroke-width="1.5" stroke-linecap="round" stroke-linejoin="round"/>
</svg>
