<svg width="54" height="54" viewBox="0 0 54 54" fill="none" xmlns="http://www.w3.org/2000/svg">
<circle cx="27" cy="27" r="27" fill="#1276EF"/>
<path d="M34.5099 12.1562L30.7606 12.15C26.5484 12.15 23.8263 15.0189 23.8263 19.4592V22.8293H20.0565C19.7308 22.8293 19.467 23.1006 19.467 23.4352V28.318C19.467 28.6526 19.7311 28.9236 20.0565 28.9236H23.8263V41.2444C23.8263 41.5791 24.0901 41.85 24.4158 41.85H29.3343C29.66 41.85 29.9238 41.5787 29.9238 41.2444V28.9236H34.3316C34.6573 28.9236 34.9211 28.6526 34.9211 28.318L34.9229 23.4352C34.9229 23.2745 34.8606 23.1206 34.7502 23.0069C34.6399 22.8932 34.4895 22.8293 34.3331 22.8293H29.9238V19.9724C29.9238 18.5993 30.2424 17.9023 31.9836 17.9023L34.5093 17.9014C34.8348 17.9014 35.0986 17.6301 35.0986 17.2958V12.7618C35.0986 12.4278 34.8351 12.1568 34.5099 12.1562Z" fill="white"/>
</svg>
