<svg width="221" height="273" viewBox="0 0 221 273" fill="none" xmlns="http://www.w3.org/2000/svg">
<circle cx="64.6883" cy="64.6883" r="64.6883" fill="#FFD66C"/>
<path d="M73.0333 39.8083L74.4375 35.4656C74.3057 37.1669 74.336 38.877 74.528 40.5726C74.3478 40.3461 74.1211 40.1607 73.8633 40.0288C73.6055 39.897 73.3225 39.8218 73.0333 39.8083ZM89.2434 35.8279L90.5286 39.8083C90.2115 39.8234 89.9023 39.9128 89.626 40.0691C89.3496 40.2254 89.1139 40.4444 88.9376 40.7085C88.9999 40.3179 89.0508 39.9611 89.0848 39.6328C89.2037 38.4324 89.2434 37.0849 89.2434 35.8279Z" fill="#222222"/>
<path d="M98.0814 58.3284L91.2588 56.8676C91.2588 56.8676 87.505 54.5745 86.9105 46.4893V46.2685C87.657 45.0701 88.2146 43.7638 88.5637 42.3957C88.6049 42.9352 88.8529 43.4378 89.2559 43.7986C89.659 44.1595 90.1859 44.3506 90.7266 44.3321C93.5179 44.3321 93.6368 40.165 91.0663 39.8252C93.1838 35.9072 89.9056 35.5053 89.2375 35.4656C89.2262 33.099 89.0846 31.123 89.0846 31.123C84.7873 33.4102 82.1035 27.8617 82.1035 27.8617C82.1035 27.8617 80.5974 31.5873 74.9185 32.0174V31.6665C74.6807 32.9199 74.5199 34.1868 74.4373 35.4599C74.4373 35.4599 70.1456 35.4826 72.4953 39.8252C69.9304 40.165 70.038 44.332 72.835 44.332C73.3091 44.3522 73.7757 44.2084 74.1563 43.9248C74.5368 43.6412 74.808 43.2351 74.9242 42.775C75.1497 43.6884 75.4863 44.5707 75.9264 45.4022L75.932 46.0079V47.8028C75.9555 49.3238 75.5661 50.8226 74.8053 52.1398C71.9008 56.9977 65.1857 56.3862 65.1857 56.3862L61.6244 55.9956C61.6244 55.9956 70.3664 32.1873 71.7875 29.8942C73.2143 27.6013 80.9541 20.6598 89.2431 27.2388C89.2431 27.2388 93.3197 30.3302 98.0814 58.3284Z" fill="#222222"/>
<path d="M57.3661 93.4083C57.8813 92.9184 58.4612 92.5015 59.0897 92.1691C59.7154 91.8299 60.3756 91.5585 61.059 91.3595L61.0143 91.5211L59.0947 89.592C58.9369 89.4362 58.7691 89.2575 58.6224 89.1278C58.4589 89.0014 58.2671 88.9167 58.0636 88.8808C57.6093 88.812 57.1619 88.7041 56.7261 88.5583C56.2914 88.3949 55.8739 88.1888 55.4797 87.9432C55.0682 87.7064 54.6968 87.406 54.3791 87.0531C54.2115 86.8485 54.1073 86.5994 54.0791 86.3364C54.0571 86.0645 54.1345 85.7938 54.297 85.5746C54.5955 85.1801 54.9919 84.8705 55.4469 84.6764L55.4005 85.0459C55.0931 84.8161 54.8038 84.5631 54.5352 84.2891C54.2224 83.9992 54.0167 83.6122 53.9514 83.1908C53.9475 83.0692 53.9603 82.9475 53.9896 82.8294C54.0333 82.7177 54.0907 82.6119 54.1604 82.5144C54.2981 82.3444 54.469 82.2043 54.6627 82.1027C55.0172 81.9149 55.4006 81.7878 55.797 81.7266L55.7602 82.2206C55.4276 82.1292 55.1305 81.939 54.9083 81.6752C54.7979 81.5411 54.7104 81.3898 54.6494 81.2272C54.5854 81.0619 54.5488 80.8873 54.5411 80.7102L54.5459 80.7605C54.4843 80.5663 54.4693 80.3603 54.502 80.1591C54.5348 79.958 54.6144 79.7674 54.7345 79.6028C54.8546 79.4382 55.0118 79.3041 55.1933 79.2115C55.3748 79.1189 55.5756 79.0703 55.7793 79.0697C56.1303 79.0322 56.4844 79.0368 56.8343 79.0834C57.1765 79.1255 57.5151 79.1931 57.8472 79.2857L57.6061 79.8074C57.376 79.6564 57.1669 79.4757 56.9842 79.27C56.8682 79.1523 56.7783 79.0116 56.7203 78.8569C56.6622 78.7022 56.6375 78.5371 56.6475 78.3722C56.6753 78.1878 56.7596 78.0166 56.8886 77.882C56.9978 77.7735 57.1225 77.6819 57.2586 77.6101C57.5112 77.4712 57.791 77.3893 58.0786 77.3701C59.0919 77.3239 60.107 77.3993 61.1024 77.5948C61.5934 77.6765 62.0812 77.7698 62.5669 77.8709C63.0735 77.9621 63.5689 78.1069 64.0449 78.3029C65.0074 78.709 65.8575 79.3416 66.523 80.1469L74.1851 89.1406L73.8775 88.9979C75.7558 88.9604 77.6311 88.8288 79.4963 88.6037C81.3704 88.3978 83.2424 88.1479 85.1109 87.8697C88.8477 87.3185 92.5762 86.6694 96.2908 85.9921L96.1174 86.066C97.5027 85.0836 98.8827 84.0858 100.243 83.0699C100.923 82.5614 101.6 82.0481 102.262 81.5233L102.755 81.1268L103.002 80.9261L103.292 80.7135C103.679 80.4605 104.097 80.258 104.536 80.1111C106.22 79.6102 107.976 79.3961 109.731 79.4779L110.382 79.4996C110.617 79.5119 110.851 79.5436 111.08 79.5944C111.545 79.6956 111.987 79.8809 112.384 80.1412C112.795 80.3988 113.149 80.7368 113.425 81.1349C113.701 81.533 113.894 81.983 113.992 82.4577L113.805 82.1666C114.09 82.3347 114.364 82.5215 114.625 82.7256C114.897 82.9398 115.137 83.1913 115.339 83.4726C115.562 83.7719 115.704 84.1244 115.749 84.4952C115.795 84.8942 115.703 85.2969 115.487 85.6356L115.451 85.1869C115.815 85.5593 116.18 85.9182 116.543 86.3015C116.727 86.5075 116.897 86.7269 117.049 86.9579C117.23 87.2156 117.347 87.5135 117.388 87.826C117.403 88.036 117.34 88.2441 117.212 88.4112C117.091 88.5549 116.933 88.6627 116.755 88.7227C116.475 88.8163 116.181 88.8613 115.885 88.8557C115.345 88.8519 114.806 88.791 114.279 88.6742L114.531 88.1318C114.983 88.4836 115.358 88.924 115.634 89.4259C115.789 89.7105 115.854 90.0349 115.821 90.357C115.799 90.5466 115.722 90.7256 115.6 90.8723C115.527 90.9463 115.442 91.0076 115.349 91.0535C115.265 91.0864 115.177 91.1114 115.088 91.128C114.51 91.1494 113.936 91.0342 113.412 90.7919C112.911 90.5923 112.424 90.3605 111.953 90.0978L112.106 90.1301L108.785 90.4239L108.925 90.3611C108.333 90.937 107.707 91.4768 107.051 91.9776C106.377 92.4678 105.649 92.8802 104.882 93.207C103.356 93.8353 101.765 94.294 100.139 94.5748C99.3241 94.7209 98.5453 94.8859 97.7598 95.0969C96.9785 95.3198 96.1987 95.55 95.4281 95.8186C93.8805 96.3299 92.3496 96.9001 90.8201 97.4717C84.7018 99.7626 78.6649 102.287 72.4536 104.358C69.3586 105.445 66.1889 106.306 62.9695 106.935C61.3347 107.291 59.6423 107.289 58.0085 106.928C56.3553 106.529 54.8657 105.629 53.7433 104.351C52.6529 103.077 51.8211 101.602 51.2946 100.009C50.7636 98.4403 50.3898 96.8223 50.1786 95.1793C50.073 94.3647 49.9525 93.5616 49.8721 92.7329C49.7927 91.9128 49.7355 91.0943 49.6854 90.276C49.587 88.6388 49.5197 87.0048 49.4721 85.3654L50.0756 85.6736C49.6586 85.9403 49.1872 86.1102 48.696 86.1708C48.2394 86.2366 47.7769 86.2526 47.3168 86.2184C46.8678 86.1918 46.4208 86.1374 45.9785 86.0554C45.5357 85.9766 45.0972 85.8749 44.6649 85.7508L44.3948 85.6722L44.3767 85.3945C44.3223 84.6337 44.4341 83.8701 44.7044 83.1567C45.0006 82.4719 45.408 81.8408 45.9102 81.289C46.4024 80.7529 46.9538 80.2743 47.5538 79.8626C48.147 79.4438 48.7785 79.0822 49.4399 78.7824L49.4552 79.6261C49.4206 79.6123 49.3876 79.595 49.3566 79.5744C49.3366 79.5612 49.3176 79.5464 49.3001 79.5301L49.2573 79.4862C49.2333 79.4608 49.2118 79.4332 49.193 79.4038L49.1298 79.2921C49.0985 79.2256 49.082 79.1749 49.0587 79.115C49.0228 79.0057 48.9991 78.9082 48.9734 78.8064C48.9343 78.6133 48.8986 78.4208 48.8776 78.2358C48.8281 77.8611 48.7971 77.4939 48.7782 77.1281C48.7328 76.3953 48.7263 75.6702 48.7237 74.9449C48.7284 73.4959 48.7739 72.0523 48.8435 70.6114C48.9119 69.1705 49.0024 67.7321 49.1029 66.2949C49.1722 64.8072 49.4684 63.3389 49.9811 61.9407C50.2534 61.2343 50.6028 60.5601 51.023 59.9304C51.8907 58.6739 53.053 57.6493 54.4085 56.9463C55.0733 56.5931 55.7729 56.3098 56.4961 56.1007C57.9253 55.6874 59.4049 55.4738 60.8927 55.466C62.3742 55.4392 63.8543 55.574 65.3067 55.8681L65.633 55.9358L65.7062 56.2681C66.2408 58.6928 66.681 61.1192 67.0067 63.5795C67.1732 64.8077 67.2881 66.0464 67.3515 67.2957C67.4468 68.5716 67.376 69.8544 67.1407 71.1121L66.7213 70.481C69.6424 71.0025 72.5207 71.6469 75.3758 72.4523C76.8024 72.8527 78.2154 73.3183 79.6081 73.8607C81.0502 74.3734 82.4023 75.1107 83.6143 76.0453L82.9993 76.0104C83.9974 75.3438 85.0072 74.7428 86.0409 74.1601C87.0754 73.5842 88.1236 73.031 89.2042 72.5383C90.2833 72.0339 91.3911 71.5934 92.522 71.2192C93.6671 70.8372 94.8497 70.5784 96.0497 70.4472L95.6838 71.0116L90.9322 56.9833L90.7472 56.4373L91.3087 56.528C93.9763 56.9571 96.613 57.5602 99.2019 58.3335C100.5 58.7213 101.773 59.1865 103.016 59.7266C104.281 60.2551 105.465 60.9585 106.535 61.8162C108.52 63.7561 109.718 66.3612 109.899 69.131C110.043 71.8485 109.569 74.5635 108.511 77.071L108.448 76.9192C108.962 77.1639 109.458 77.4435 109.934 77.7559C110.413 78.0631 110.864 78.4112 111.282 78.7962C111.71 79.1752 112.078 79.6168 112.374 80.106C112.673 80.5983 112.839 81.1601 112.856 81.7361H112.755C112.728 81.1817 112.556 80.6439 112.258 80.1756C111.96 79.7051 111.593 79.2824 111.169 78.922C110.322 78.1933 109.373 77.5923 108.352 77.1379L108.249 77.0908L108.288 76.986C109.277 74.5047 109.69 71.8314 109.497 69.1673C109.368 67.8536 109.02 66.5707 108.469 65.3715C108.328 65.0747 108.165 64.7887 108.014 64.4968L107.482 63.6667C107.281 63.4081 107.093 63.1334 106.881 62.8878C106.652 62.6621 106.434 62.4261 106.198 62.207C105.16 61.396 104.013 60.7338 102.792 60.2396C101.565 59.7224 100.309 59.2791 99.0291 58.9121C96.4625 58.1761 93.8505 57.6085 91.2099 57.2129L91.5864 56.7578L96.4912 70.7332L96.669 71.2399L96.1253 71.2979C94.9935 71.4361 93.8796 71.6938 92.8021 72.0667C91.7096 72.4418 90.6401 72.8808 89.5992 73.3815C88.5503 73.8733 87.5281 74.4272 86.5198 75.0031C85.5161 75.582 84.5171 76.1957 83.5695 76.8395L83.255 77.0532L82.9543 76.8048C81.8254 75.9493 80.5707 75.2743 79.2347 74.8039C77.8865 74.2818 76.502 73.8274 75.0964 73.436C72.2889 72.649 69.4187 72.0122 66.5487 71.5055L66.0131 71.4109L66.1293 70.8742C66.3385 69.7096 66.3981 68.523 66.3067 67.3434C66.2438 66.1369 66.1291 64.9249 65.9629 63.7166C65.639 61.3014 65.1956 58.8842 64.6668 56.5071L65.0662 56.907C62.3306 56.3254 59.4971 56.3884 56.79 57.091C56.1299 57.2777 55.491 57.5327 54.8837 57.8517C53.6711 58.4721 52.6292 59.3804 51.8492 60.497C51.4688 61.0624 51.1518 61.6681 50.9039 62.3029C50.4208 63.6068 50.1399 64.9768 50.0708 66.3655C49.9638 67.7963 49.8668 69.2276 49.7921 70.6585C49.716 72.0895 49.664 73.5204 49.6525 74.947C49.6515 75.6591 49.6548 76.3725 49.6951 77.0752C49.7112 77.4271 49.7398 77.7772 49.7828 78.1153C49.8014 78.2877 49.8315 78.4487 49.8621 78.6083C49.8804 78.6804 49.8992 78.7581 49.9187 78.8195L49.9462 78.8932C49.9476 78.8949 49.9483 78.897 49.9483 78.8992C49.9525 78.9085 49.9361 78.8803 49.9246 78.8702L49.9039 78.8518L49.8599 78.8185C49.8335 78.801 49.8051 78.7869 49.7752 78.7763L49.7905 79.6201C49.1858 79.8924 48.6067 80.2183 48.06 80.5938C47.5099 80.9622 47.0035 81.3919 46.5503 81.8745C46.1114 82.3467 45.7526 82.8873 45.4879 83.4751C45.2609 84.0624 45.1618 84.6913 45.1972 85.32L44.9091 84.9639C45.3095 85.0827 45.7157 85.1811 46.1261 85.2586C46.5359 85.3392 46.9503 85.3942 47.3669 85.4234C47.7721 85.4585 48.1798 85.4493 48.583 85.396C48.9562 85.356 49.3162 85.2349 49.6376 85.0411L50.2282 84.6485L50.2412 85.3493C50.2714 86.9773 50.3216 88.6099 50.4022 90.2362C50.4435 91.0493 50.4917 91.8619 50.5614 92.669C50.63 93.4679 50.7431 94.283 50.8391 95.0898C51.0277 96.6931 51.375 98.2737 51.8759 99.8083C52.3613 101.333 53.1387 102.749 54.165 103.977C55.2027 105.185 56.5884 106.043 58.1326 106.434C59.6982 106.795 61.3236 106.813 62.8967 106.486C66.1025 105.903 69.2589 105.076 72.3383 104.011C75.4384 102.99 78.5024 101.856 81.5558 100.694L90.7052 97.1681C92.2337 96.5874 93.7634 96.008 95.3163 95.4855C96.0879 95.2118 96.8739 94.9747 97.663 94.745C98.4532 94.5274 99.2749 94.3496 100.067 94.2034C101.663 93.9216 103.223 93.4613 104.716 92.8313C105.449 92.507 106.144 92.1008 106.786 91.6203C107.422 91.1203 108.027 90.5827 108.599 90.0103L108.656 89.9559L108.739 89.9473L112.056 89.6075L112.134 89.5995L112.21 89.6398C112.661 89.8836 113.129 90.0978 113.608 90.2814C114.044 90.4761 114.518 90.5735 114.995 90.5668C115.308 90.5694 115.319 90.0874 115.108 89.693C114.865 89.2757 114.543 88.9104 114.158 88.6183L113.185 87.8384L114.41 88.0759C114.892 88.1751 115.383 88.2242 115.874 88.2223C116.096 88.2248 116.316 88.1906 116.526 88.1212C116.716 88.0363 116.736 87.9952 116.735 87.8678C116.603 87.446 116.366 87.0645 116.046 86.7591L114.959 85.6787L114.765 85.4867L114.922 85.2297C115.03 85.0297 115.073 84.8012 115.046 84.5756C115.01 84.3246 114.908 84.0876 114.75 83.8886C114.585 83.6652 114.388 83.4663 114.167 83.2977C113.934 83.1213 113.69 82.9599 113.436 82.8146L113.282 82.7229L113.249 82.5233C113.172 82.1741 113.016 81.8471 112.794 81.5672C112.56 81.2655 112.277 81.0044 111.958 80.7945C111.638 80.5914 111.284 80.4486 110.912 80.3733C110.725 80.3347 110.536 80.3116 110.345 80.304L109.719 80.2917C108.063 80.2306 106.407 80.4388 104.818 80.9081C104.448 81.0327 104.096 81.204 103.769 81.4177L103.544 81.5832L103.297 81.786L102.795 82.1926C102.125 82.7288 101.446 83.2486 100.764 83.7634C99.3983 84.7917 98.0211 85.7966 96.6312 86.791L96.5534 86.8467L96.4575 86.8651C92.7296 87.5771 88.9909 88.1898 85.2349 88.7267C83.3576 88.9962 81.4751 89.2375 79.5851 89.4351C77.6899 89.6536 75.785 89.7767 73.8774 89.8042L73.6899 89.8044L73.5696 89.6614L65.9638 80.6203C65.38 79.8913 64.6278 79.3151 63.7719 78.9415C63.3389 78.7567 62.8873 78.6192 62.4248 78.5312C61.9479 78.4254 61.4696 78.3276 60.9905 78.2415C60.0544 78.0449 59.0984 77.9589 58.1423 77.9851C57.9365 77.9922 57.7351 78.0461 57.5534 78.1426C57.3668 78.2353 57.2419 78.3606 57.241 78.4548C57.2456 78.6187 57.3146 78.7742 57.433 78.8876C57.5764 79.0514 57.74 79.1965 57.9198 79.3193L59.3964 80.3285L57.6787 79.8409C57.0876 79.657 56.4679 79.582 55.85 79.6198C55.5913 79.6284 55.3465 79.7388 55.1688 79.9269C55.0424 80.1491 55.0054 80.4111 55.0655 80.6595L55.0697 80.6926L55.0703 80.71C55.0769 80.824 55.1003 80.9363 55.1397 81.0434C55.1793 81.1544 55.2373 81.2579 55.3113 81.3496C55.4651 81.5348 55.6714 81.669 55.9032 81.7344L56.9433 82.0597L55.8663 82.2284C55.5299 82.2771 55.2037 82.3802 54.9006 82.5338C54.6147 82.69 54.3943 82.9049 54.4286 83.1644C54.4357 83.2337 54.4497 83.3022 54.4704 83.3687L54.5653 83.5809C54.6569 83.723 54.7592 83.8579 54.8713 83.9844C55.1156 84.2433 55.379 84.4836 55.6593 84.703L55.9299 84.9289L55.6128 85.0725C55.2276 85.2281 54.8882 85.4789 54.6264 85.8014C54.5126 85.951 54.455 86.1358 54.4636 86.3236C54.4722 86.5113 54.5465 86.6901 54.6736 86.8286C54.9586 87.1532 55.2919 87.432 55.6618 87.6552C56.0317 87.8971 56.4246 88.102 56.8347 88.2667C57.2554 88.4171 57.6882 88.5309 58.1285 88.6068C58.3718 88.6572 58.5995 88.7654 58.7923 88.9222C58.9806 89.0972 59.1175 89.2548 59.2788 89.42L61.1505 91.3848L61.2646 91.5045L61.1058 91.5465C60.4317 91.7274 59.7787 91.9796 59.158 92.2988C58.5326 92.6123 57.9531 93.01 57.4357 93.4809L57.3661 93.4083Z" fill="#222222"/>
<path d="M67.4197 85.5382C67.1613 86.2285 66.7852 86.8686 66.3081 87.4303C65.8509 88.0039 65.3101 88.5054 64.7038 88.918C64.7802 88.5462 64.9167 88.1893 65.1079 87.8615C65.2863 87.5413 65.4926 87.2374 65.7242 86.9533C65.9567 86.6715 66.2118 86.4092 66.4872 86.1691C66.7672 85.9166 67.0811 85.7042 67.4197 85.5382ZM55.5938 84.631L58.6961 85.5751C59.2189 85.7495 59.7103 86.0062 60.152 86.3357L61.505 87.2281L60.0869 86.4432C59.6379 86.1583 59.1462 85.9472 58.6304 85.8179L55.4662 85.1176L55.5938 84.631ZM55.8805 81.7307L59.982 82.6696C60.6872 82.8076 61.3472 83.1188 61.9025 83.575L63.5571 84.8743L61.8278 83.6761C61.2695 83.2688 60.6182 83.0076 59.9332 82.9163L55.783 82.224L55.8805 81.7307ZM57.8149 79.3171L59.8771 79.8155C60.5676 79.9909 61.2448 80.1268 61.9463 80.3349C62.2901 80.4526 62.6174 80.614 62.9202 80.8151C63.2178 81.0217 63.4931 81.2338 63.7806 81.4429L65.4884 82.7016L63.7091 81.5461C63.413 81.3565 63.1149 81.1545 62.8205 80.9751C62.5225 80.8018 62.2037 80.6673 61.8716 80.5749C61.2072 80.4198 60.4883 80.3164 59.7994 80.1846L57.7113 79.8093L57.8149 79.3171ZM61.1412 91.6972L61.0239 91.2084C61.4176 91.1139 70.6995 88.9199 73.8965 89.1499L73.8589 89.652C70.7293 89.4015 61.2363 91.674 61.1412 91.6972ZM107.132 83.4258C108.166 83.0207 109.227 82.691 110.308 82.4393C110.854 82.3091 111.407 82.2179 111.966 82.1664C112.542 82.0995 113.125 82.1275 113.692 82.2492L113.549 82.7315C113.041 82.5848 112.513 82.5212 111.985 82.5431C111.439 82.5522 110.894 82.6001 110.355 82.6864C109.264 82.8548 108.187 83.1019 107.132 83.4258ZM108.4 85.5382C109.521 85.2965 110.657 85.1227 111.799 85.0178C112.375 84.9623 112.953 84.9405 113.531 84.9526C114.126 84.9523 114.718 85.0343 115.29 85.1961L115.119 85.6691C114.6 85.483 114.058 85.3686 113.508 85.3291C112.945 85.276 112.378 85.2559 111.812 85.269C110.67 85.2901 109.531 85.38 108.4 85.5382ZM109.245 88.0731C110.096 87.9785 110.952 87.9208 111.813 87.9103C112.687 87.8805 113.562 87.9558 114.418 88.1343L114.271 88.6154C113.47 88.3671 112.641 88.2148 111.804 88.1615C110.956 88.0887 110.1 88.0622 109.245 88.0731ZM104.839 83.7276C105.297 83.8394 105.705 84.102 105.996 84.4732C106.159 84.6771 106.271 84.9165 106.324 85.1719C106.357 85.398 106.376 85.6257 106.382 85.854C106.372 86.2373 106.414 86.6203 106.505 86.9927C106.642 87.374 106.856 87.7233 107.132 88.0196C106.896 87.9805 106.67 87.8916 106.471 87.7586C106.271 87.6257 106.102 87.4518 105.975 87.2486C105.741 86.8297 105.622 86.3568 105.629 85.8772C105.628 85.6675 105.63 85.4303 105.619 85.2748C105.607 85.1039 105.565 84.9364 105.496 84.7795C105.316 84.4056 105.096 84.0528 104.839 83.7276ZM49.4027 78.7453C49.6756 78.6687 49.955 78.6171 50.2373 78.5912C50.511 78.5622 50.7869 78.5592 51.0612 78.5824C51.6042 78.6046 52.1203 78.8247 52.5123 79.2011C52.0702 78.9873 51.5643 78.9457 51.0932 79.0843C50.8634 79.1421 50.6397 79.2216 50.425 79.3219C50.2163 79.4152 50.0165 79.5273 49.828 79.6568L49.4027 78.7453ZM49.8568 85.3572C50.2645 85.1265 50.7014 84.9519 51.1559 84.8382C51.6018 84.7189 52.0572 84.6383 52.517 84.5975C52.9801 84.5585 53.4459 84.5654 53.9076 84.618C54.3793 84.6648 54.8384 84.7972 55.2626 85.0087C54.3282 85.1705 53.4727 85.2673 52.5803 85.3487C51.6749 85.4416 50.7626 85.4445 49.8568 85.3572ZM112.081 89.8686C112.399 90.9748 112.604 92.1102 112.694 93.2575C112.8 94.4124 112.786 95.5753 112.65 96.7271C112.539 97.9154 112.151 99.0612 111.518 100.073C111.178 100.586 110.7 100.994 110.14 101.249C109.589 101.477 108.983 101.533 108.4 101.411C108.955 101.378 109.493 101.21 109.968 100.921C110.41 100.627 110.772 100.227 111.02 99.7582C111.505 98.7792 111.804 97.7188 111.902 96.6306C112.036 95.5185 112.105 94.3994 112.108 93.2793C112.119 92.1505 112.1 91.0167 112.081 89.8686ZM98.8639 70.5706C99.5156 71.3076 100.103 72.0987 100.621 72.9353C101.148 73.7662 101.62 74.6312 102.033 75.5245C102.454 76.4205 102.79 77.3545 103.036 78.3139C103.313 79.2728 103.388 80.2789 103.255 81.2682C103.093 80.3167 102.831 79.3849 102.474 78.4883C102.136 77.5931 101.76 76.7101 101.348 75.8392C100.553 74.0837 99.664 72.3688 98.8639 70.5706ZM63.0138 67.7338C63.1612 68.6094 63.2591 69.4926 63.3071 70.3793C63.3673 71.2612 63.3833 72.1429 63.3908 73.0247C63.3843 73.9065 63.3682 74.7884 63.3082 75.6702C63.2604 76.5568 63.1622 77.4401 63.0138 78.3156C62.8656 77.4401 62.7673 76.5568 62.7195 75.6702C62.6595 74.7884 62.6435 73.9065 62.6369 73.0247C62.6444 72.1429 62.6605 71.2612 62.7206 70.3793C62.7686 69.4926 62.8665 68.6094 63.0138 67.7338ZM65.8559 56.6598C65.4313 56.6598 65.1769 56.6388 65.1642 56.6377L65.2095 56.1368C65.2737 56.1406 71.8031 56.672 74.5904 52.0114C75.3252 50.7326 75.7009 49.279 75.6779 47.8042V46.0067H76.1811V47.8042C76.2041 49.3698 75.8035 50.9125 75.0216 52.2691C72.6286 56.2728 67.6778 56.6598 65.8559 56.6598Z" fill="#222222"/>
<path d="M72.8364 56.4931C73.032 56.4864 73.2173 56.4039 73.3532 56.2632C73.4892 56.1224 73.5652 55.9344 73.5652 55.7387C73.5652 55.543 73.4892 55.355 73.3532 55.2143C73.2173 55.0735 73.032 54.9911 72.8364 54.9843C72.6409 54.9911 72.4556 55.0735 72.3196 55.2143C72.1837 55.355 72.1077 55.543 72.1077 55.7387C72.1077 55.9344 72.1837 56.1224 72.3196 56.2632C72.4556 56.4039 72.6409 56.4864 72.8364 56.4931ZM74.9186 58.6659C75.1142 58.6591 75.2995 58.5767 75.4354 58.4359C75.5714 58.2952 75.6474 58.1071 75.6474 57.9115C75.6474 57.7158 75.5714 57.5277 75.4354 57.387C75.2995 57.2463 75.1142 57.1638 74.9186 57.157C74.7231 57.1638 74.5378 57.2463 74.4018 57.387C74.2659 57.5277 74.1899 57.7158 74.1899 57.9115C74.1899 58.1071 74.2659 58.2952 74.4018 58.4359C74.5378 58.5767 74.7231 58.6591 74.9186 58.6659ZM77.4082 60.7933C77.6038 60.7866 77.7891 60.7041 77.925 60.5634C78.061 60.4226 78.137 60.2346 78.137 60.0389C78.137 59.8432 78.061 59.6552 77.925 59.5145C77.7891 59.3737 77.6038 59.2913 77.4082 59.2845C77.2126 59.2913 77.0274 59.3737 76.8914 59.5145C76.7554 59.6552 76.6795 59.8432 76.6795 60.0389C76.6795 60.2346 76.7554 60.4226 76.8914 60.5634C77.0274 60.7041 77.2126 60.7866 77.4082 60.7933ZM80.3504 63.5998C80.546 63.593 80.7313 63.5106 80.8673 63.3698C81.0032 63.2291 81.0792 63.041 81.0792 62.8454C81.0792 62.6497 81.0032 62.4616 80.8673 62.3209C80.7313 62.1802 80.546 62.0977 80.3504 62.0909C80.1549 62.0977 79.9696 62.1802 79.8336 62.3209C79.6977 62.4616 79.6217 62.6497 79.6217 62.8454C79.6217 63.041 79.6977 63.2291 79.8336 63.3698C79.9696 63.5106 80.1549 63.593 80.3504 63.5998ZM84.0169 65.6367C84.2125 65.6299 84.3978 65.5475 84.5338 65.4068C84.6697 65.266 84.7457 65.078 84.7457 64.8823C84.7457 64.6866 84.6697 64.4986 84.5338 64.3578C84.3978 64.2171 84.2125 64.1347 84.0169 64.1279C83.8214 64.1347 83.6361 64.2171 83.5001 64.3578C83.3642 64.4986 83.2882 64.6866 83.2882 64.8823C83.2882 65.078 83.3642 65.266 83.5001 65.4068C83.6361 65.5475 83.8214 65.6299 84.0169 65.6367ZM86.0086 63.1471C86.2042 63.1404 86.3895 63.0579 86.5254 62.9172C86.6614 62.7764 86.7374 62.5884 86.7374 62.3927C86.7374 62.197 86.6614 62.009 86.5254 61.8683C86.3895 61.7275 86.2042 61.6451 86.0086 61.6383C85.813 61.6451 85.6277 61.7275 85.4918 61.8683C85.3558 62.009 85.2799 62.197 85.2799 62.3927C85.2799 62.5884 85.3558 62.7764 85.4918 62.9172C85.6277 63.0579 85.813 63.1404 86.0086 63.1471ZM88.0908 60.0238C88.2864 60.0171 88.4717 59.9346 88.6076 59.7939C88.7436 59.6531 88.8195 59.4651 88.8195 59.2694C88.8195 59.0737 88.7436 58.8857 88.6076 58.745C88.4717 58.6042 88.2864 58.5218 88.0908 58.515C87.8952 58.5218 87.7099 58.6042 87.574 58.745C87.438 58.8857 87.3621 59.0737 87.3621 59.2694C87.3621 59.4651 87.438 59.6531 87.574 59.7939C87.7099 59.9346 87.8952 60.0171 88.0908 60.0238ZM89.9467 56.5384C90.1422 56.5316 90.3275 56.4492 90.4635 56.3085C90.5994 56.1677 90.6754 55.9797 90.6754 55.784C90.6754 55.5883 90.5994 55.4003 90.4635 55.2595C90.3275 55.1188 90.1422 55.0363 89.9467 55.0296C89.7511 55.0363 89.5658 55.1188 89.4299 55.2595C89.2939 55.4003 89.2179 55.5883 89.2179 55.784C89.2179 55.9797 89.2939 56.1677 89.4299 56.3085C89.5658 56.4492 89.7511 56.5316 89.9467 56.5384ZM75.326 33.9662C75.9866 33.7306 76.6776 33.591 77.3779 33.5517C78.1273 33.4514 78.8872 33.635 79.5083 34.0663C79.9759 34.6434 80.2661 35.3437 80.344 36.0824C80.4701 36.7759 80.4569 37.4875 80.3052 38.1759C80.2584 37.4952 80.1427 36.8211 79.96 36.1638C79.8747 35.8425 79.7677 35.5274 79.6398 35.2206C79.5764 35.0718 79.5056 34.9263 79.4276 34.7845L79.3008 34.5845C79.2569 34.5235 79.2087 34.4875 79.1665 34.4348C78.6342 34.0933 78.0106 33.9217 77.3785 33.9426C76.7061 33.9106 76.0207 33.9341 75.326 33.9662ZM80.0336 39.1881C80.2664 39.351 80.4767 39.5438 80.6593 39.7615L80.8965 40.0341C80.9931 40.1377 81.0981 40.2333 81.2105 40.3196C81.1355 40.3669 81.0508 40.3965 80.9627 40.4061C80.8746 40.4157 80.7855 40.4051 80.7021 40.3751C80.5397 40.3203 80.3948 40.2233 80.2823 40.0939C80.1723 39.9733 80.0924 39.8283 80.0491 39.6709C80.0059 39.5134 80.0006 39.348 80.0336 39.1881ZM83.519 39.0811C83.6476 39.2923 83.6899 39.545 83.637 39.7865C83.5816 40.0515 83.4235 40.2838 83.1973 40.4326C82.9774 40.5643 82.723 40.6268 82.4672 40.612C82.2306 40.5958 82.0018 40.5208 81.8016 40.3938C82.0314 40.3154 82.2367 40.2721 82.4299 40.2214C82.6029 40.1723 82.769 40.1015 82.9242 40.0106C83.2262 39.7809 83.4369 39.4515 83.519 39.0811ZM83.3379 34.1019C83.9678 33.7516 84.6746 33.5629 85.3952 33.5525C86.1238 33.5082 86.8471 33.701 87.4571 34.1019C87.0924 34.0831 86.7569 34.0583 86.4182 34.0493C86.0797 34.0487 85.7453 34.0417 85.408 34.0549C84.7318 34.0688 84.059 34.1167 83.3379 34.1019ZM82.666 35.7315C82.8435 35.9766 82.9601 36.2605 83.0061 36.5596C83.0521 36.8587 83.0262 37.1644 82.9306 37.4515C82.6973 37.2385 82.5479 36.949 82.5093 36.6354C82.4548 36.3251 82.5103 36.0055 82.666 35.7315Z" fill="#222222"/>
<path d="M77.4533 37.0291C77.6489 37.0223 77.8342 36.9398 77.9701 36.7991C78.1061 36.6584 78.1821 36.4703 78.1821 36.2746C78.1821 36.079 78.1061 35.8909 77.9701 35.7502C77.8342 35.6094 77.6489 35.527 77.4533 35.5202C77.2577 35.527 77.0724 35.6094 76.9365 35.7502C76.8005 35.8909 76.7245 36.079 76.7245 36.2746C76.7245 36.4703 76.8005 36.6584 76.9365 36.7991C77.0724 36.9398 77.2577 37.0223 77.4533 37.0291ZM85.2842 36.9385C85.4798 36.9318 85.665 36.8493 85.801 36.7086C85.9369 36.5678 86.0129 36.3798 86.0129 36.1841C86.0129 35.9884 85.9369 35.8004 85.801 35.6596C85.665 35.5189 85.4798 35.4365 85.2842 35.4297C85.0886 35.4365 84.9033 35.5189 84.7674 35.6596C84.6314 35.8004 84.5554 35.9884 84.5554 36.1841C84.5554 36.3798 84.6314 36.5678 84.7674 36.7086C84.9033 36.8493 85.0886 36.9318 85.2842 36.9385ZM79.0376 43.4266C79.4797 43.7442 79.9517 44.0179 80.4468 44.244C80.9172 44.4615 81.425 44.5866 81.9426 44.6126C82.4548 44.6377 82.965 44.5313 83.4245 44.3036C83.6662 44.1931 83.8985 44.0632 84.1191 43.9151C84.3442 43.7654 84.5478 43.5831 84.7863 43.4266C84.6336 43.6639 84.4641 43.89 84.2793 44.1031C84.0803 44.3118 83.8562 44.495 83.612 44.6483C83.1131 44.979 82.5219 45.1424 81.924 45.115C81.335 45.0846 80.7636 44.9038 80.2643 44.5898C79.7758 44.2957 79.3572 43.8988 79.0376 43.4266Z" fill="#222222"/>
<path d="M89.2376 35.4656C89.2433 35.5845 89.2433 35.7091 89.2433 35.8279L89.1244 35.46C89.1244 35.46 89.164 35.46 89.2376 35.4656Z" fill="white"/>
<path d="M74.9185 32.0166C75.2771 31.967 75.6367 31.9269 75.9931 31.8696C76.3445 31.7854 76.7033 31.7333 77.0471 31.6231C77.7402 31.4278 78.4093 31.1559 79.0423 30.8125C79.6661 30.4607 80.2402 30.0271 80.7493 29.5233C81.2551 29.0279 81.6707 28.4482 81.9777 27.8102L82.0936 27.5563L82.2228 27.8019C82.5576 28.4302 82.9633 29.0179 83.4321 29.5537C83.8896 30.0926 84.4308 30.5545 85.035 30.9216C85.6334 31.2725 86.3125 31.4624 87.006 31.4727C87.6983 31.4535 88.3762 31.27 88.9837 30.9375L89.2744 30.8059L89.2956 31.1093C89.4211 32.9067 89.4836 34.7017 89.4693 36.5031C89.4974 38.315 89.3204 40.1243 88.9417 41.8965C88.5646 43.6898 87.826 45.3874 86.7709 46.8856C86.2235 47.6408 85.5249 48.2738 84.7196 48.7444C83.8943 49.1995 82.9618 49.424 82.0199 49.3945C81.0951 49.3565 80.1851 49.15 79.3344 48.7852C78.473 48.4406 77.6936 47.9186 77.047 47.2532C75.8224 45.8834 75.0026 44.2004 74.6789 42.3918C74.3188 40.6222 74.1841 38.8141 74.2781 37.0106C74.3467 35.2155 74.5609 33.4288 74.9185 31.6683C74.6191 33.4348 74.4636 35.2227 74.4534 37.0144C74.4235 38.7986 74.5997 40.5804 74.9786 42.3242C75.3198 44.0603 76.1357 45.6677 77.3357 46.9679C77.9537 47.5801 78.6891 48.0612 79.4975 48.3824C80.3001 48.7218 81.1579 48.912 82.0288 48.9437C82.8891 48.9664 83.7397 48.7568 84.4911 48.3369C85.2356 47.8941 85.8799 47.3015 86.3834 46.5966C87.3826 45.1422 88.0896 43.5075 88.4651 41.7833C88.8462 40.0476 89.0296 38.2743 89.0119 36.4974C89.037 34.7133 88.9853 32.9212 88.8717 31.141L89.1835 31.3127C88.511 31.6668 87.7633 31.8544 87.0033 31.8595C86.2449 31.8356 85.5056 31.6154 84.8577 31.2203C84.2295 30.8238 83.6693 30.3288 83.1985 29.7541C82.7235 29.1912 82.3151 28.5753 81.9813 27.9187L82.2264 27.9105C81.8972 28.5764 81.4461 29.1747 80.8965 29.6744C80.3596 30.1729 79.7583 30.5973 79.1088 30.9364C78.4578 31.2631 77.7723 31.5163 77.0652 31.6911C76.716 31.7905 76.3533 31.8314 75.9988 31.9043C75.6395 31.9503 75.278 31.9788 74.9185 32.0166ZM91.5838 234.212C92.4646 237.374 92.9756 240.628 93.1066 243.907C93.189 245.556 93.1453 247.208 92.9761 248.85C92.8067 250.502 92.5006 252.137 92.0611 253.739L92.0745 253.502C92.2941 254.334 92.6565 255.121 93.1456 255.829C93.6267 256.543 94.2394 257.158 94.951 257.642C95.1238 257.767 95.306 257.879 95.4959 257.976C95.6769 258.089 95.868 258.185 96.0668 258.263L96.6585 258.508L97.2797 258.681L97.5889 258.77L97.9099 258.822L98.5514 258.924C98.9837 258.968 99.4243 258.968 99.8596 258.995L100.054 259.007L100.185 259.08C101.133 259.613 102.048 260.162 102.954 260.781C103.427 261.097 103.876 261.449 104.296 261.832L105.438 262.952L105.388 262.907L107.303 264.455C107.621 264.706 107.95 264.967 108.254 265.187C108.562 265.369 108.886 265.522 109.222 265.643C110.733 266.267 112.272 266.871 113.804 267.47L113.881 267.501L113.974 267.564C114.818 268.143 115.74 268.6 116.712 268.922C117.626 269.25 118.614 269.314 119.563 269.108C120.466 268.855 121.24 268.269 121.729 267.468C122.272 266.603 122.662 265.651 122.881 264.653L123.116 265.366L119.611 262.347L119.687 262.403L116.266 260.2L116.233 260.178L116.214 260.163L111.746 256.557L111.781 256.582C110.851 255.896 109.989 255.121 109.208 254.268C108.432 253.427 107.734 252.515 107.125 251.545C106.508 250.578 106.007 249.543 105.631 248.459C105.262 247.376 105.026 246.252 104.927 245.112L104.925 245.094L104.926 245.08L105.099 240.713C105.151 239.258 105.235 237.802 105.303 236.347C105.338 237.804 105.388 239.26 105.405 240.717L105.476 245.086L105.475 245.055C105.63 246.134 105.915 247.191 106.324 248.202C106.721 249.215 107.232 250.179 107.846 251.077C108.456 251.978 109.148 252.821 109.913 253.595C110.669 254.365 111.495 255.06 112.382 255.673L112.397 255.684L112.416 255.698L117.001 259.154L116.95 259.117L120.409 261.26L120.444 261.281L120.485 261.315L124.041 264.272L124.376 264.549L124.276 264.985C124.031 266.153 123.58 267.268 122.944 268.278C122.261 269.379 121.19 270.185 119.943 270.537C118.723 270.824 117.448 270.759 116.264 270.352C115.13 269.992 114.057 269.459 113.085 268.772L113.256 268.866C111.718 268.254 110.188 267.644 108.652 266.999L108.071 266.748C107.961 266.696 107.888 266.669 107.747 266.595C107.625 266.532 107.509 266.459 107.4 266.376C107.038 266.11 106.722 265.855 106.394 265.593L104.471 264.015L104.444 263.993L104.421 263.969L103.309 262.841C102.949 262.504 102.565 262.194 102.16 261.913C101.325 261.32 100.428 260.759 99.5345 260.237L99.8596 260.322C99.3701 260.287 98.8802 260.276 98.3924 260.217L97.6621 260.088L97.2977 260.021L96.94 259.913L96.2272 259.691L95.5432 259.381C95.3138 259.281 95.0935 259.161 94.8849 259.022C94.6665 258.899 94.4574 258.761 94.259 258.608C93.4522 258.017 92.7648 257.278 92.233 256.431C91.6921 255.591 91.306 254.66 91.0931 253.684L91.0688 253.573L91.1065 253.447C91.5834 251.913 91.9327 250.342 92.1508 248.751C92.3623 247.148 92.4789 245.533 92.5 243.917C92.5177 242.292 92.4488 240.667 92.2934 239.049C92.1406 237.426 91.9037 235.811 91.5838 234.212Z" fill="#222222"/>
<path d="M91.5838 253.593C91.5838 253.593 88.8814 254.136 89.1197 255.041C89.3581 255.947 88.8149 264.185 91.1687 265.09C93.5225 265.996 96.4195 265.362 98.049 265.634C99.7882 265.911 101.417 266.663 102.757 267.806C104.477 269.164 111.176 273.419 117.151 272.967C123.126 272.514 127.109 271.609 127.471 267.354C127.834 263.099 124.031 259.749 118.599 259.025C118.599 259.025 118.37 254.606 108.3 252.47C108.3 252.47 102.757 251.511 99.8596 259.659L103.843 262.374C103.843 262.374 105.382 254.408 112.081 256.128L116.608 259.659C113.223 260.915 110.249 263.075 108.007 265.905L113.53 268.168C113.53 268.168 115.963 262.646 120.048 261.831L123.579 264.819C123.579 264.819 122.342 271.858 116.125 269.515L91.5838 253.593Z" fill="#222222"/>
<path d="M66.4502 241.279C66.4802 241.28 68.0205 224.861 68.0232 224.89C68.1514 226.264 66.7848 244.079 67.0084 245.435C67.2044 246.784 67.5097 248.114 67.9212 249.413C68.0274 249.725 68.1532 250.031 68.2978 250.328C68.368 250.477 68.4467 250.608 68.5289 250.752C68.6175 250.909 68.7152 251.064 68.7939 251.227C69.1255 251.867 69.3856 252.542 69.5695 253.239C69.9542 254.626 70.0947 256.07 69.9846 257.506C69.9313 258.239 69.7854 258.961 69.5503 259.657C69.3163 260.396 68.9087 261.067 68.3616 261.616C68.0719 261.902 67.7323 262.132 67.3596 262.296C67.1737 262.38 66.9802 262.446 66.7817 262.493L66.254 262.597C65.615 262.755 64.9935 262.978 64.3987 263.26C63.0631 263.753 61.6652 264.056 60.2455 264.162C58.852 264.3 57.4618 264.34 56.0748 264.346C53.3009 264.35 50.5382 264.256 47.7743 264.173C46.3925 264.13 45.0114 264.073 43.6307 264.004C42.2487 263.958 40.868 263.89 39.4866 263.827C33.9602 263.584 28.4456 263.146 22.9418 262.625L22.9197 262.623C22.7934 262.611 22.6752 262.556 22.5848 262.467C22.4944 262.378 22.4373 262.261 22.4232 262.135C22.4052 261.989 22.4065 261.842 22.4271 261.696C22.4413 261.578 22.4635 261.462 22.4937 261.347C22.5498 261.133 22.6274 260.925 22.7254 260.727C22.8127 260.535 22.9171 260.351 23.0372 260.177C23.146 260.003 23.2677 259.838 23.4013 259.683C23.9052 259.078 24.4879 258.543 25.1338 258.092C26.3793 257.227 27.7138 256.497 29.1146 255.916C29.8081 255.635 30.5045 255.362 31.2075 255.115C31.9115 254.885 32.6237 254.632 33.3207 254.42C34.7196 253.98 36.122 253.554 37.5105 253.093C40.2918 252.225 42.9968 251.128 45.598 249.816C46.877 249.154 48.0405 248.289 49.0435 247.255C51.5919 245.359 54.0056 228.698 54.0634 227.233C54.2307 227.194 54.4018 227.173 54.5737 227.171C54.604 227.173 50.8193 243.347 50.8212 243.376C50.8737 244.896 50.365 246.382 49.392 247.55C48.4195 248.7 47.2561 249.673 45.9529 250.428C43.3794 251.907 40.6686 253.134 37.8585 254.091C36.4714 254.595 35.0818 255.087 33.6835 255.548C32.9777 255.774 32.3089 256.025 31.62 256.262C30.9409 256.512 30.2721 256.786 29.6087 257.066C28.2937 257.613 27.0391 258.295 25.8652 259.102C25.3016 259.488 24.7883 259.942 24.3373 260.456C24.228 260.576 24.1286 260.705 24.0401 260.841C23.9475 260.967 23.8672 261.102 23.8002 261.244C23.7319 261.373 23.6771 261.509 23.6368 261.649C23.6187 261.712 23.6049 261.775 23.5954 261.84C23.5835 261.888 23.5867 261.984 23.5803 261.95L23.0618 261.46C28.5488 262.068 34.0386 262.649 39.5312 263.203C40.9056 263.326 42.2802 263.455 43.6564 263.56C45.033 263.658 46.4109 263.732 47.789 263.8C50.5432 263.945 53.3032 263.944 56.0573 263.797C57.4307 263.718 58.8017 263.6 60.1494 263.395C61.4819 263.223 62.7854 262.873 64.0253 262.355C64.6706 262.029 65.3476 261.769 66.0457 261.58L66.3246 261.526L66.5338 261.481C66.6711 261.448 66.8049 261.402 66.9332 261.342C67.1939 261.227 67.4307 261.063 67.6315 260.86C68.4554 259.896 68.9301 258.683 68.9788 257.416C69.0983 256.092 69.0005 254.758 68.6892 253.467C68.5345 252.823 68.3204 252.196 68.0498 251.592C67.9859 251.44 67.9051 251.298 67.8326 251.151C67.7511 250.991 67.6615 250.82 67.5929 250.652C67.4516 250.32 67.3313 249.98 67.2327 249.633C66.8651 248.279 66.6295 246.893 66.5292 245.494C66.4199 244.108 67.9896 226.277 68.0232 224.89" fill="#222222"/>
<path d="M55.911 264.597C53.4803 264.597 51.0243 264.523 48.6467 264.451L47.7665 264.425C46.3831 264.381 45.0002 264.324 43.6179 264.255C42.4783 264.218 41.3349 264.164 40.1915 264.111L39.4749 264.078C34.5694 263.863 29.3078 263.481 22.9177 262.876C22.7303 262.861 22.5537 262.782 22.418 262.652C22.2824 262.522 22.1959 262.349 22.1735 262.162C22.154 262.013 22.1538 261.861 22.1729 261.712C22.1813 261.605 22.1987 261.499 22.2249 261.395L22.247 261.298C22.3082 261.06 22.3942 260.829 22.5036 260.609C22.5948 260.408 22.7038 260.216 22.8293 260.035C22.9335 259.868 23.0501 259.709 23.1781 259.559C23.7038 258.922 24.3129 258.36 24.9889 257.886C26.2476 257.009 27.5976 256.271 29.0153 255.685C29.5953 255.45 30.3545 255.148 31.1247 254.878C31.3757 254.796 31.6234 254.712 31.8706 254.629C32.3317 254.473 32.7929 254.318 33.2474 254.18L34.4466 253.805C35.4447 253.494 36.441 253.183 37.4307 252.854C40.1981 251.988 42.8901 250.898 45.4796 249.593C46.7359 248.948 47.8776 248.1 48.859 247.085C49.439 246.652 50.024 245.376 50.5786 243.664C50.5786 243.573 50.5758 243.482 50.5703 243.391C50.567 243.346 50.567 243.346 51.6579 238.663C52.0793 236.854 52.5879 234.671 53.0474 232.693C53.5036 230.002 53.7878 227.838 53.8121 227.223C53.8242 226.983 54.0576 226.961 54.2832 226.939C54.4242 226.926 54.569 226.92 54.5862 226.92L54.7028 226.926L54.7731 227.019C54.8422 227.108 54.8565 227.127 53.5334 232.825C52.9595 236.525 52.1401 240.183 51.0807 243.774C51.0292 245.214 50.5045 246.597 49.5878 247.708C48.5976 248.88 47.413 249.871 46.0861 250.641C43.4983 252.129 40.7724 253.363 37.9466 254.326C36.2707 254.936 34.9808 255.386 33.7621 255.787C33.3115 255.931 32.878 256.085 32.4445 256.238C32.1979 256.326 31.9513 256.414 31.702 256.499C30.971 256.769 30.2511 257.068 29.7065 257.298C28.4073 257.836 27.1687 258.509 26.0113 259.307C25.4643 259.681 24.9661 260.121 24.5284 260.618L24.4908 260.663C24.4043 260.759 24.3259 260.862 24.2563 260.97C24.1763 261.079 24.1054 261.194 24.0446 261.315C28.8378 261.844 33.9241 262.381 39.5567 262.953L40.2789 263.018C41.4107 263.12 42.5425 263.222 43.6754 263.309C45.1805 263.416 46.6712 263.493 47.8013 263.548C50.5465 263.694 53.2975 263.693 56.0426 263.546C57.6206 263.456 58.9134 263.328 60.1115 263.146C61.4223 262.98 62.7045 262.637 63.9228 262.126C64.0726 262.062 64.2208 261.994 64.3734 261.924C64.8896 261.667 65.4333 261.469 65.994 261.333L66.4806 261.236C66.5982 261.207 66.7128 261.167 66.8228 261.116C67.0592 261.012 67.2736 260.864 67.4548 260.68C68.2382 259.759 68.687 258.601 68.7282 257.392C68.8439 256.096 68.7483 254.79 68.4451 253.525C68.2935 252.897 68.0843 252.285 67.8203 251.695C67.7778 251.594 67.7307 251.503 67.6837 251.412L67.5759 251.201C67.5007 251.054 67.4222 250.899 67.3603 250.747C67.2156 250.407 67.0923 250.058 66.991 249.702C66.6186 248.332 66.3801 246.93 66.2788 245.514C66.2489 245.136 66.3374 243.609 66.485 241.531C66.472 241.532 66.4588 241.532 66.4458 241.531L66.4502 241.28L66.2041 241.231C66.25 240.947 67.0214 232.792 67.4361 228.41C67.5931 226.748 67.681 225.819 67.7501 225.299C67.7623 225.106 67.77 224.965 67.7717 224.884L67.8187 224.885C67.8745 224.64 67.9298 224.638 68.021 224.638H68.2521L68.2737 224.867C68.334 225.511 68.0918 229.39 67.812 233.882C67.4969 238.945 67.1391 244.683 67.2563 245.394C67.4502 246.729 67.752 248.045 68.1587 249.33C68.2617 249.633 68.3836 249.929 68.5236 250.217C68.5789 250.334 68.6381 250.437 68.6995 250.544L68.8283 250.768C68.8952 250.883 68.9621 250.998 69.0201 251.117C69.3585 251.771 69.6242 252.461 69.8125 253.174C70.2049 254.59 70.3478 256.063 70.2349 257.528C70.1811 258.281 70.0309 259.024 69.7882 259.739C69.5429 260.517 69.1128 261.223 68.5347 261.798C68.2233 262.105 67.8584 262.352 67.4582 262.528C67.2602 262.616 67.0546 262.686 66.8439 262.737L66.302 262.843C65.8453 262.944 65.4011 263.094 64.9777 263.293C64.8201 263.359 64.6587 263.427 64.4917 263.494C63.1348 263.996 61.7141 264.305 60.2713 264.412C59.0455 264.533 57.7516 264.591 56.0757 264.597H55.911ZM55.2104 264.093C55.499 264.094 55.7899 264.095 56.0741 264.094C57.7334 264.088 59.0123 264.031 60.2204 263.911C61.6165 263.809 62.9914 263.511 64.3048 263.026C64.4696 262.961 64.6283 262.894 64.7825 262.83C65.239 262.616 65.7183 262.454 66.2113 262.349L66.7338 262.246C66.9121 262.203 67.0859 262.144 67.253 262.068C67.6005 261.916 67.917 261.702 68.1869 261.435C68.7068 260.915 69.093 260.276 69.3126 259.574C69.5416 258.899 69.6832 258.197 69.734 257.486C69.8415 256.079 69.7038 254.664 69.327 253.303C69.1472 252.624 68.8938 251.967 68.5712 251.343C68.5153 251.229 68.4545 251.125 68.3943 251.022L68.2632 250.794C68.1952 250.675 68.13 250.561 68.0702 250.435C67.9215 250.13 67.7923 249.815 67.6832 249.494C67.2866 248.257 66.9911 246.99 66.7996 245.705C66.9045 247.01 67.1306 248.302 67.4747 249.565C67.5705 249.901 67.6872 250.231 67.8242 250.553C67.8828 250.696 67.9552 250.837 68.0238 250.973L68.1299 251.181C68.1836 251.284 68.2366 251.387 68.282 251.495C68.5576 252.111 68.7758 252.751 68.9339 253.407C69.2502 254.726 69.35 256.088 69.2291 257.439C69.1728 258.764 68.6725 260.032 67.8087 261.038C67.5854 261.264 67.322 261.445 67.0318 261.574C66.8925 261.638 66.7473 261.688 66.5984 261.724L66.0924 261.827C65.5699 261.955 65.0633 262.141 64.5824 262.382C64.4254 262.454 64.2728 262.523 64.124 262.587C62.8658 263.116 61.5414 263.471 60.1872 263.643C58.973 263.828 57.6654 263.957 56.0719 264.048C55.7877 264.064 55.5005 264.079 55.2104 264.093ZM22.7209 261.483L22.7148 261.511C22.6967 261.578 22.6845 261.645 22.6783 261.713C22.6589 261.844 22.6572 261.976 22.6733 262.106C22.681 262.175 22.712 262.239 22.7611 262.287C22.8102 262.336 22.8745 262.366 22.9431 262.373C29.3465 262.979 34.5998 263.36 39.4975 263.576L40.2147 263.609C40.9136 263.641 41.6125 263.674 42.3113 263.703C41.6185 263.644 40.9261 263.582 40.234 263.519L39.5086 263.453C33.8207 262.876 28.6913 262.334 23.8582 261.801C23.853 261.816 23.8491 261.832 23.8466 261.848L23.8239 262.163L23.5994 262.208L23.3783 262.223L23.3495 262.078L22.7209 261.483ZM22.8088 261.179L23.0897 261.21C23.2301 261.225 23.3709 261.241 23.5121 261.257C23.5331 261.209 23.5568 261.162 23.5829 261.117C23.6533 260.968 23.7382 260.826 23.8361 260.694C23.9164 260.568 24.0071 260.449 24.107 260.338L24.1446 260.293C24.6098 259.764 25.1392 259.295 25.7205 258.896C26.9069 258.078 28.1767 257.387 29.5085 256.836C30.0603 256.603 30.7874 256.301 31.5333 256.025C31.786 255.939 32.0309 255.852 32.2764 255.764C32.7143 255.609 33.1528 255.453 33.6073 255.308C34.8182 254.91 36.1037 254.461 37.773 253.855C40.5668 252.903 43.2623 251.683 45.8218 250.213C46.9114 249.569 47.9093 248.782 48.7888 247.872C47.8658 248.726 46.8333 249.454 45.7184 250.036C43.1036 251.355 40.3852 252.456 37.5905 253.331C36.5969 253.662 35.5973 253.973 34.5959 254.285L33.3961 254.66C32.9438 254.797 32.4876 254.952 32.0315 255.105C31.7827 255.189 31.5339 255.273 31.2861 255.354C30.5309 255.619 29.7789 255.918 29.2088 256.149C27.8253 256.721 26.5079 257.441 25.2798 258.297C24.6517 258.735 24.085 259.255 23.5945 259.843C23.4695 259.989 23.3555 260.143 23.2533 260.305C23.1384 260.471 23.0385 260.646 22.9548 260.83C22.8967 260.942 22.8479 261.059 22.8088 261.179Z" fill="#222222"/>
<path d="M62.3988 248.957C62.6281 249.406 62.7471 249.902 62.746 250.406C62.7537 250.925 62.6395 251.438 62.4127 251.904C62.1849 252.375 61.8355 252.776 61.4005 253.067C60.9853 253.354 60.5073 253.536 60.0068 253.6C60.3974 253.334 60.7663 253.038 61.1102 252.713C61.4319 252.408 61.6952 252.045 61.887 251.645C62.2629 250.801 62.4381 249.881 62.3988 248.957Z" fill="#222222"/>
<path d="M59.066 253.996L60.1348 253.192C60.4178 252.998 60.6833 252.78 60.9283 252.54C61.2316 252.253 61.4798 251.912 61.6603 251.536C62.0237 250.726 62.1906 249.842 62.1475 248.955L62.153 247.967L62.6208 248.838C62.8696 249.322 62.9989 249.858 62.9978 250.402C63.0056 250.959 62.8829 251.511 62.6396 252.013C62.3917 252.527 62.0103 252.964 61.5354 253.279C61.0911 253.586 60.5797 253.781 60.0442 253.849L59.066 253.996ZM62.4875 250.68C62.4085 251.054 62.2822 251.417 62.1115 251.758C61.9455 252.104 61.7294 252.424 61.4701 252.706C61.7712 252.455 62.016 252.143 62.1884 251.791C62.3566 251.442 62.4581 251.066 62.4875 250.68Z" fill="#222222"/>
<path d="M68.0955 261.026C68.0955 261.026 71.4275 262.183 69.5865 268.233C69.5865 268.233 69.8561 270.485 61.836 270.063L21.4541 270.115C21.4541 270.115 18.465 263.508 24.6731 262.213L34.8107 263.151C34.8107 263.151 32.2883 257.118 32.9918 255.148C34.0722 253.386 35.7065 252.031 37.6388 251.297C39.5711 250.563 41.6924 250.49 43.6704 251.091C43.6704 251.091 43.2537 260.771 50.7157 264.08C50.7157 264.08 61.6917 263.528 68.0955 261.026Z" fill="#222222"/>
<path d="M21.2922 270.367L21.2253 270.219C21.1639 270.084 19.7429 266.883 20.9936 264.42C21.6334 263.161 22.8537 262.335 24.6213 261.967L24.6584 261.959L24.696 261.962L34.4224 262.862C33.8722 261.479 32.125 256.827 32.7553 255.063C33.8652 253.249 35.5433 251.852 37.5289 251.09C39.5144 250.327 41.6962 250.242 43.7352 250.847L43.9304 250.899L43.9215 251.101C43.9177 251.196 43.6041 260.603 50.7628 263.826C51.6453 263.777 61.9544 263.155 68.0039 260.792L68.0902 260.758L68.1775 260.789C68.323 260.839 71.703 262.091 69.8385 268.268C69.819 268.566 69.6886 268.846 69.473 269.053C68.7968 269.777 66.923 270.583 61.8229 270.313L21.2922 270.367ZM24.6877 262.466C23.0969 262.806 22.0049 263.54 21.442 264.648C20.4423 266.616 21.3652 269.22 21.6217 269.864L61.8355 269.811C66.9379 270.078 68.559 269.257 69.0732 268.743C69.1472 268.683 69.2086 268.609 69.2537 268.526C69.2988 268.442 69.3267 268.35 69.3359 268.255L69.3337 268.211L69.3458 268.16C70.9476 262.897 68.5806 261.52 68.0924 261.298C61.7111 263.754 50.838 264.326 50.7285 264.331L50.6688 264.335L50.614 264.31C43.6904 261.24 43.4122 252.718 43.4161 251.285C41.5129 250.757 39.49 250.86 37.6503 251.578C35.8106 252.297 34.2532 253.592 33.2115 255.27C32.5656 257.089 35.0178 262.994 35.0427 263.054L35.2036 263.44L24.6877 262.466Z" fill="#222222"/>
<path d="M47.0196 248.957C47.0196 248.957 46.1148 259.497 54.3229 264.346L60.2455 264.161C60.2455 264.161 52.3893 259.444 49.9763 246.696C49.9763 246.696 48.3167 249.119 47.0196 248.957Z" fill="#222222"/>
<path d="M54.2577 264.599L54.1953 264.562C45.9463 259.69 46.7596 249.043 46.769 248.935L46.7911 248.675L47.051 248.707C47.9926 248.817 49.3318 247.193 49.7691 246.554L50.1109 246.055L50.2236 246.649C52.5852 259.127 60.2973 263.899 60.3747 263.946L61.1057 264.386L54.2577 264.599ZM47.2572 249.212C47.1914 250.774 47.1477 259.763 54.3882 264.092L59.4817 263.934C57.5808 262.505 51.9388 257.509 49.8399 247.302C49.3052 247.979 48.2574 249.13 47.2572 249.212ZM91.1455 214.953C91.4683 221.459 91.8212 227.964 92.2043 234.47C90.9137 233.993 89.7003 233.33 88.6033 232.499L86.4858 158.034L86.7349 159.025C86.9048 159.818 87.0803 160.61 87.2105 161.414C87.4823 163.017 87.6974 164.63 87.8786 166.244C88.2579 169.471 88.5467 172.715 88.8128 175.96C89.3168 182.448 89.7301 188.942 90.0924 195.442C90.4717 201.942 90.8002 208.448 91.1455 214.953ZM86.4631 138.886C86.4575 139.871 86.4178 140.856 86.4065 141.841C86.4292 143.817 86.2254 145.782 86.1914 147.764C86.1914 147.764 86.1914 151.517 86.0328 156.692C85.829 163.475 85.3534 172.71 84.2607 179.147C82.3243 190.494 82.0865 232.256 82.0865 232.256C62.7738 238.535 47.5659 233.949 47.5659 233.949C48.285 224.29 53.7204 159.71 53.7204 159.71C52.5767 142.271 55.4473 124.301 57.429 114.466C58.7704 114.136 60.0725 113.664 61.313 113.056C62.5587 112.457 63.7552 111.76 64.8913 110.973C66.0218 110.167 67.0739 109.257 68.0337 108.255C68.991 107.244 69.7873 106.093 70.3947 104.841C69.4152 105.82 68.4527 106.743 67.4279 107.609C66.3861 108.453 65.3386 109.28 64.2346 110.044C62.0434 111.59 59.756 112.994 57.429 114.466C58.3858 109.733 59.1332 106.885 59.1332 106.885C63.7058 106.338 68.2246 105.41 72.6425 104.11C76.0097 103.119 79.3098 101.912 82.5225 100.498C82.7773 100.538 83.032 100.583 83.2868 100.617C83.5813 102.576 83.8927 104.524 84.1361 106.488C84.4022 108.442 84.6344 110.401 84.8722 112.354C85.3195 116.272 85.6931 120.196 85.9592 124.125C86.0555 125.371 86.1291 126.622 86.1914 127.868C86.176 127.863 86.1608 127.857 86.1461 127.851C85.7917 127.716 85.4232 127.623 85.0477 127.573C84.3398 127.464 83.6232 127.423 82.9075 127.449C82.2083 127.467 81.5108 127.526 80.8183 127.624C80.1274 127.715 79.4428 127.85 78.7686 128.026C80.1558 128.111 81.5317 128.162 82.8792 128.292C83.5412 128.351 84.1992 128.449 84.8495 128.587C85.3515 128.677 85.8295 128.87 86.2537 129.153C86.3499 131.412 86.4141 133.671 86.4462 135.93L86.4631 138.886ZM102.979 104.954C102.149 104.062 101.417 103.085 100.793 102.038C103.342 102.067 105.888 101.857 108.397 101.41C109.96 103.911 111.12 106.644 111.834 109.506C111.421 109.421 111.013 109.348 110.611 109.246L109.734 109.002C109.586 108.957 109.439 108.934 109.298 108.883L108.879 108.73C108.595 108.623 108.312 108.532 108.035 108.436L107.231 108.062C106.959 107.949 106.696 107.814 106.444 107.66C106.184 107.527 105.933 107.377 105.691 107.213C104.691 106.583 103.779 105.823 102.979 104.954Z" fill="#222222"/>
<path d="M121.193 232.981C106.274 238.218 96.8868 236.361 92.2044 234.475V234.47C92.2667 227.947 92.2063 221.43 92.0232 214.919C91.8591 208.402 91.5816 201.891 91.2249 195.38C91.0267 192.124 90.8172 188.874 90.5738 185.619C90.3077 182.369 90.0416 179.119 89.6905 175.875C89.3452 172.63 88.9432 169.392 88.4279 166.165C88.1618 164.557 87.8618 162.949 87.5051 161.358C87.2413 160.123 86.897 158.907 86.4746 157.717L86.1915 147.764C86.837 143.851 87.2172 139.899 87.3295 135.936C87.3861 134.945 87.3805 133.954 87.3805 132.963C87.3748 131.972 87.4031 130.982 87.3635 129.991L87.3352 129.221C87.889 128.815 88.4656 128.44 89.0621 128.1C89.7335 127.72 90.4274 127.382 91.14 127.086C92.5867 126.474 94.1289 126.117 95.6978 126.033C94.9055 125.827 94.0862 125.745 93.2689 125.79C92.4434 125.835 91.6262 125.977 90.8343 126.214C90.0447 126.453 89.279 126.763 88.5468 127.143C88.1165 127.375 87.6975 127.613 87.2899 127.879L87.2616 127.018C87.2163 126.027 87.1484 125.037 87.0861 124.046C86.803 120.094 86.3727 116.147 85.7442 112.235C85.1409 108.32 84.3205 104.441 83.2869 100.617C89.0727 101.578 94.9286 102.053 100.793 102.038C101.023 103.294 101.537 104.481 102.294 105.509C103.041 106.567 103.987 107.469 105.08 108.164C106.168 108.86 107.378 109.342 108.647 109.585C109.269 109.711 109.902 109.781 110.538 109.795C110.992 109.798 111.446 109.769 111.896 109.71C116.392 125.948 115.967 154.365 116.364 167.557C116.851 183.49 121.193 232.981 121.193 232.981Z" fill="#222222"/>
<path d="M112.423 109.653C112.248 109.676 112.072 109.699 111.897 109.71C111.874 109.642 111.857 109.574 111.834 109.512C112.027 109.552 112.225 109.597 112.423 109.653ZM86.486 158.034L86.435 157.842L86.033 156.692C86.1976 157.026 86.345 157.368 86.4747 157.717L86.486 158.034Z" fill="white"/>
<path d="M81.3997 33.6658C81.5953 33.6591 81.7806 33.5766 81.9166 33.4359C82.0526 33.2951 82.1286 33.1071 82.1286 32.9114C82.1286 32.7157 82.0526 32.5277 81.9166 32.3869C81.7806 32.2462 81.5953 32.1637 81.3997 32.157C81.2042 32.1637 81.0188 32.2462 80.8829 32.3869C80.7469 32.5277 80.6709 32.7157 80.6709 32.9114C80.6709 33.1071 80.7469 33.2951 80.8829 33.4359C81.0188 33.5766 81.2042 33.6591 81.3997 33.6658Z" fill="#B21919"/>
<path d="M220.29 139.796H135.358V27.4835H220.29V139.796ZM137.051 138.103H218.597V29.1766H137.051V138.103Z" fill="#222222"/>
<path d="M173.626 68.9772H144.547V37.2977H173.626V68.9772ZM146.303 67.2212H171.87V39.0538H146.303V67.2212Z" fill="#222222"/>
<path d="M165.69 49.0032L166.653 51.9927C166.634 51.988 166.615 51.9861 166.596 51.987C166.199 51.9769 165.811 52.1141 165.509 52.3721C165.537 52.1909 165.554 52.0153 165.571 51.8568C165.662 50.9566 165.69 49.9488 165.69 49.0032Z" fill="#222222"/>
<path d="M172.303 65.8417L167.202 64.7545C167.202 64.7545 164.394 63.0389 163.946 56.9864V56.8222C164.434 56.044 164.811 55.2017 165.067 54.3197C165.173 54.6374 165.38 54.9121 165.655 55.1021C165.931 55.2921 166.261 55.3871 166.596 55.3727C168.617 55.3727 168.765 52.4626 167.038 52.0436C168.668 49.0711 166.188 48.7653 165.69 48.737C165.679 46.9649 165.571 45.4927 165.571 45.4927C162.355 47.2026 160.351 43.0468 160.351 43.0468C160.351 43.0468 159.224 45.8382 154.978 46.1608V45.9004C154.564 48.0965 154.465 50.3404 154.683 52.5644C154.548 52.395 154.378 52.2564 154.184 52.1578C153.991 52.0592 153.779 52.0029 153.562 51.9926L154.615 48.7313C154.615 48.7313 151.4 48.754 153.16 52.0096C151.247 52.2587 151.326 55.3727 153.415 55.3727C153.771 55.3877 154.121 55.2793 154.406 55.0657C154.69 54.852 154.893 54.5465 154.978 54.2008C155.148 54.8858 155.401 55.5475 155.731 56.1711V57.9716C155.749 59.1087 155.46 60.2297 154.893 61.2158C152.719 64.8508 147.697 64.3922 147.697 64.3922L145.03 64.0978C145.03 64.0978 151.569 46.2855 152.634 44.5699C153.698 42.8543 159.49 37.6624 165.696 42.5826C165.696 42.5826 168.742 44.8982 172.303 65.8417Z" fill="#222222"/>
<path d="M148.195 64.5955C147.878 64.5955 147.687 64.5794 147.677 64.5789L147.712 64.204C147.758 64.2078 152.644 64.6054 154.73 61.117C155.28 60.1604 155.561 59.073 155.544 57.9698V56.6251H155.92V57.9698C155.937 59.1412 155.637 60.2954 155.053 61.3105C153.262 64.3057 149.558 64.5955 148.195 64.5955Z" fill="#222222"/>
<path d="M153.418 64.4703C153.564 64.4653 153.703 64.4036 153.804 64.2983C153.906 64.193 153.963 64.0523 153.963 63.9059C153.963 63.7595 153.906 63.6188 153.804 63.5135C153.703 63.4082 153.564 63.3466 153.418 63.3415C153.271 63.3466 153.133 63.4082 153.031 63.5135C152.929 63.6188 152.872 63.7595 152.872 63.9059C152.872 64.0523 152.929 64.193 153.031 64.2983C153.133 64.4036 153.271 64.4653 153.418 64.4703ZM154.975 66.0958C155.122 66.0907 155.26 66.029 155.362 65.9237C155.464 65.8184 155.521 65.6778 155.521 65.5314C155.521 65.385 155.464 65.2443 155.362 65.139C155.26 65.0337 155.122 64.972 154.975 64.967C154.829 64.972 154.69 65.0337 154.589 65.139C154.487 65.2443 154.43 65.385 154.43 65.5314C154.43 65.6778 154.487 65.8184 154.589 65.9237C154.69 66.029 154.829 66.0907 154.975 66.0958ZM156.838 67.6874C156.984 67.6823 157.123 67.6206 157.225 67.5153C157.326 67.41 157.383 67.2694 157.383 67.123C157.383 66.9766 157.326 66.8359 157.225 66.7306C157.123 66.6253 156.984 66.5636 156.838 66.5586C156.692 66.5636 156.553 66.6253 156.451 66.7306C156.35 66.8359 156.293 66.9766 156.293 67.123C156.293 67.2694 156.35 67.41 156.451 67.5153C156.553 67.6206 156.692 67.6823 156.838 67.6874ZM164.83 67.1117C164.976 67.1066 165.115 67.0449 165.216 66.9396C165.318 66.8344 165.375 66.6937 165.375 66.5473C165.375 66.4009 165.318 66.2602 165.216 66.1549C165.115 66.0496 164.976 65.9879 164.83 65.9829C164.683 65.9879 164.545 66.0496 164.443 66.1549C164.341 66.2602 164.285 66.4009 164.285 66.5473C164.285 66.6937 164.341 66.8344 164.443 66.9396C164.545 67.0449 164.683 67.1066 164.83 67.1117ZM166.218 64.5042C166.364 64.4991 166.503 64.4374 166.605 64.3321C166.707 64.2269 166.763 64.0862 166.763 63.9398C166.763 63.7934 166.707 63.6527 166.605 63.5474C166.503 63.4421 166.364 63.3804 166.218 63.3754C166.072 63.3804 165.933 63.4421 165.832 63.5474C165.73 63.6527 165.673 63.7934 165.673 63.9398C165.673 64.0862 165.73 64.2269 165.832 64.3321C165.933 64.4374 166.072 64.4991 166.218 64.5042ZM155.28 47.6175C155.775 47.4423 156.291 47.338 156.815 47.3074C157.376 47.2323 157.944 47.3697 158.409 47.6924C158.759 48.1241 158.976 48.648 159.034 49.2006C159.127 49.7195 159.118 50.2517 159.005 50.7667C158.971 50.2575 158.885 49.753 158.747 49.2616C158.683 49.0212 158.603 48.7854 158.507 48.5559C158.428 48.3391 158.308 48.1395 158.153 47.9681C157.755 47.7127 157.289 47.5842 156.816 47.5998C156.313 47.5788 155.799 47.5884 155.28 47.6175ZM158.802 51.5241C158.976 51.646 159.133 51.7902 159.27 51.953C159.391 52.1075 159.53 52.2476 159.682 52.3706C159.626 52.4055 159.563 52.4273 159.497 52.4345C159.431 52.4417 159.365 52.434 159.302 52.4121C159.181 52.3711 159.072 52.2985 158.988 52.2017C158.906 52.1115 158.846 52.003 158.814 51.8853C158.781 51.7675 158.777 51.6437 158.802 51.5241ZM161.409 51.4441C161.505 51.6024 161.536 51.791 161.498 51.9717C161.456 52.17 161.338 52.3438 161.169 52.4551C161.004 52.5536 160.814 52.6004 160.623 52.5894C160.446 52.5762 160.275 52.5201 160.125 52.426C160.416 52.3663 160.698 52.27 160.965 52.1394C161.19 51.9676 161.348 51.7212 161.409 51.4441ZM161.274 47.719C161.745 47.457 162.274 47.3158 162.813 47.308C163.358 47.2749 163.899 47.4191 164.356 47.719C163.846 47.6807 163.334 47.669 162.823 47.6839C162.317 47.6944 161.813 47.7297 161.274 47.719ZM160.771 48.9381C160.904 49.1215 160.991 49.3339 161.026 49.5576C161.06 49.7814 161.041 50.0102 160.969 50.225C160.795 50.0655 160.683 49.849 160.654 49.6143C160.614 49.3821 160.655 49.1431 160.771 48.9381Z" fill="#222222"/>
<path d="M156.872 49.9089C157.018 49.9038 157.157 49.8422 157.258 49.7369C157.36 49.6316 157.417 49.4909 157.417 49.3445C157.417 49.1981 157.36 49.0574 157.258 48.9521C157.157 48.8468 157.018 48.7852 156.872 48.7801C156.725 48.7852 156.587 48.8468 156.485 48.9521C156.383 49.0574 156.327 49.1981 156.327 49.3445C156.327 49.4909 156.383 49.6316 156.485 49.7369C156.587 49.8422 156.725 49.9038 156.872 49.9089ZM162.73 49.8412C162.877 49.8361 163.015 49.7745 163.117 49.6692C163.219 49.5639 163.275 49.4232 163.275 49.2768C163.275 49.1304 163.219 48.9897 163.117 48.8844C163.015 48.7791 162.877 48.7175 162.73 48.7124C162.584 48.7175 162.445 48.7791 162.344 48.8844C162.242 48.9897 162.185 49.1304 162.185 49.2768C162.185 49.4232 162.242 49.5639 162.344 49.6692C162.445 49.7745 162.584 49.8361 162.73 49.8412ZM158.057 54.695C158.387 54.9335 158.74 55.1384 159.111 55.3065C159.463 55.4692 159.843 55.5628 160.23 55.5823C160.614 55.6011 160.995 55.5215 161.339 55.351C161.703 55.1723 162.044 54.9521 162.358 54.695C162.242 54.8712 162.115 55.0402 161.978 55.201C161.83 55.3573 161.662 55.4944 161.479 55.6091C161.106 55.8564 160.664 55.9787 160.216 55.9581C159.784 55.9258 159.365 55.7953 158.991 55.5764C158.616 55.3575 158.297 55.056 158.057 54.695Z" fill="#222222"/>
<path d="M165.605 48.7313C165.605 48.7313 165.633 48.7313 165.69 48.737V48.9976L165.605 48.7313Z" fill="white"/>
<path d="M154.975 46.159L155.779 46.049C156.042 45.9859 156.311 45.947 156.568 45.8646C157.086 45.7185 157.587 45.5151 158.06 45.2582C158.527 44.995 158.957 44.6706 159.337 44.2936C159.716 43.923 160.027 43.4893 160.256 43.0119L160.343 42.822L160.44 43.0059C160.69 43.4759 160.994 43.9156 161.345 44.3164C161.687 44.7196 162.092 45.0652 162.544 45.3397C162.991 45.6022 163.499 45.7442 164.018 45.7519C164.536 45.7376 165.043 45.6004 165.498 45.3516L165.715 45.2532L165.731 45.4802C165.825 46.8246 165.872 48.1671 165.861 49.5145C165.882 50.8698 165.749 52.2231 165.465 53.5482C165.181 54.8888 164.628 56.1579 163.84 57.2788C163.425 57.8387 162.905 58.3123 162.308 58.6728C161.997 58.8353 161.667 58.9583 161.326 59.039C161.154 59.0723 160.983 59.1218 160.81 59.1403L160.287 59.1473L160.025 59.15L159.769 59.1061L159.258 59.016C158.926 58.9278 158.599 58.8214 158.278 58.6974C157.632 58.4451 157.048 58.0556 156.566 57.5558C155.65 56.5309 155.038 55.2719 154.796 53.9192C154.527 52.5955 154.426 51.2432 154.496 49.8942C154.548 48.5515 154.708 47.2151 154.975 45.8983C154.751 47.2196 154.635 48.5569 154.627 49.897C154.605 51.2315 154.737 52.5642 155.02 53.8685C155.275 55.1671 155.885 56.3696 156.782 57.3425C157.242 57.8024 157.793 58.1612 158.4 58.3959C158.705 58.5117 159.016 58.611 159.332 58.6934L159.812 58.7747L160.051 58.8153L160.293 58.8102L160.775 58.8018C160.933 58.7838 161.087 58.736 161.244 58.7054C161.555 58.6303 161.855 58.517 162.137 58.368C162.688 58.0283 163.168 57.5849 163.55 57.0623C163.935 56.5313 164.253 55.9547 164.497 55.3455C164.751 54.7357 164.956 54.1064 165.108 53.4636C165.395 52.1657 165.532 50.8393 165.519 49.5102C165.538 48.1758 165.499 46.8353 165.414 45.5038L165.647 45.6323C165.144 45.8973 164.585 46.0376 164.016 46.0414C163.449 46.0236 162.896 45.8588 162.411 45.5632C161.941 45.2666 161.522 44.8962 161.17 44.4662C160.814 44.0451 160.509 43.5844 160.259 43.0932L160.443 43.0871C160.196 43.5853 159.859 44.0328 159.448 44.4067C159.046 44.7796 158.596 45.0972 158.11 45.3509C157.623 45.5952 157.11 45.7846 156.581 45.9155C156.32 45.9898 156.049 46.0204 155.784 46.075L154.975 46.159Z" fill="#222222"/>
<path d="M154.978 54.2008C154.845 53.6622 154.746 53.1156 154.683 52.5645L154.978 54.2008Z" fill="white"/>
<path d="M159.824 47.3928C159.97 47.3878 160.109 47.3261 160.211 47.2208C160.313 47.1155 160.369 46.9748 160.369 46.8284C160.369 46.682 160.313 46.5414 160.211 46.4361C160.109 46.3308 159.97 46.2691 159.824 46.264C159.678 46.2691 159.539 46.3308 159.437 46.4361C159.336 46.5414 159.279 46.682 159.279 46.8284C159.279 46.9748 159.336 47.1155 159.437 47.2208C159.539 47.3261 159.678 47.3878 159.824 47.3928Z" fill="#B21919"/>
<path d="M210.433 57.2697H181.736V58.984H210.433V57.2697Z" fill="#222222"/>
<path d="M210.413 47.791H181.716V49.5053H210.413V47.791Z" fill="#222222"/>
<path d="M210.433 67.2087H181.736V68.9231H210.433V67.2087Z" fill="#222222"/>
<path d="M210.432 38.4358H181.699V40.1501H210.432V38.4358Z" fill="#222222"/>
<path d="M210.432 129.275H176.411V130.989H210.432V129.275Z" fill="#222222"/>
<path d="M210.413 119.796H176.391V121.51H210.413V119.796Z" fill="#222222"/>
<path d="M210.431 110.44H176.374V112.154H210.431V110.44Z" fill="#222222"/>
<path d="M156.749 106.744C155.09 106.745 153.449 107.093 151.932 107.766C150.431 108.438 149.078 109.399 147.949 110.595C145.709 112.983 144.438 116.12 144.384 119.394C144.347 121.032 144.636 122.66 145.234 124.185C145.832 125.71 146.726 127.101 147.866 128.278C149.026 129.447 150.411 130.368 151.939 130.986C153.466 131.604 155.102 131.904 156.749 131.87C160.031 131.793 163.155 130.444 165.463 128.108C167.739 125.778 169.017 122.652 169.023 119.394C169.02 116.128 167.775 112.985 165.54 110.603C164.415 109.405 163.063 108.443 161.563 107.772C160.047 107.099 158.408 106.749 156.749 106.744ZM156.749 106.666C160.143 106.651 163.416 107.929 165.903 110.24C167.15 111.41 168.143 112.824 168.818 114.395C169.496 115.976 169.848 117.677 169.853 119.397C169.858 121.117 169.516 122.821 168.846 124.405C168.176 125.986 167.203 127.42 165.981 128.626C164.765 129.823 163.322 130.764 161.736 131.395C160.151 132.025 158.455 132.332 156.749 132.297C153.349 132.221 150.106 130.847 147.687 128.456C146.483 127.273 145.513 125.875 144.826 124.333C144.141 122.775 143.77 121.096 143.736 119.394C143.712 117.685 144.044 115.99 144.71 114.416C145.375 112.841 146.361 111.423 147.604 110.249C150.086 107.937 153.356 106.656 156.749 106.666Z" fill="#222222"/>
<path d="M156.749 126.256C154.911 126.269 153.133 125.605 151.752 124.391C151.054 123.764 150.5 122.992 150.129 122.129C149.757 121.266 149.578 120.333 149.602 119.394C149.636 118.463 149.855 117.547 150.246 116.701C150.637 115.871 151.176 115.118 151.836 114.481C153.154 113.189 154.905 112.433 156.749 112.359C157.685 112.322 158.618 112.477 159.491 112.812C160.365 113.148 161.162 113.658 161.832 114.311C162.514 114.971 163.056 115.76 163.427 116.634C163.797 117.507 163.987 118.446 163.987 119.395C163.986 120.339 163.786 121.272 163.402 122.134C163.017 122.996 162.456 123.768 161.755 124.4C160.371 125.612 158.589 126.273 156.749 126.256ZM156.749 126.178C157.63 126.169 158.499 125.973 159.299 125.604C160.1 125.235 160.813 124.702 161.392 124.038C162.528 122.758 163.156 121.106 163.157 119.395C163.152 117.693 162.492 116.058 161.315 114.829C160.108 113.592 158.476 112.861 156.749 112.785C155.873 112.75 154.999 112.899 154.183 113.221C153.368 113.544 152.629 114.034 152.014 114.659C151.418 115.291 150.955 116.035 150.653 116.848C150.35 117.662 150.213 118.527 150.25 119.394C150.303 121.113 150.957 122.759 152.097 124.046C152.679 124.709 153.394 125.242 154.195 125.609C154.997 125.977 155.867 126.171 156.749 126.178Z" fill="#222222"/>
<path d="M156.431 126.209C154.969 126.143 153.568 125.607 152.436 124.68L148.726 129.225C148.753 129.247 148.781 129.269 148.808 129.291C148.978 129.427 149.152 129.56 149.328 129.688L149.329 129.688C151.173 131.017 153.34 131.827 155.603 132.032C155.63 132.034 155.657 132.037 155.685 132.039C155.74 132.043 155.796 132.048 155.852 132.052C155.904 132.055 155.957 132.059 156.009 132.062C156.048 132.064 156.088 132.066 156.127 132.068L156.158 132.069L156.431 126.209ZM149.926 119.394C149.925 118.181 150.248 116.989 150.863 115.943L145.803 112.976C144.811 114.668 144.225 116.567 144.09 118.524L144.086 118.591C144.079 118.697 144.074 118.804 144.07 118.91C144.069 118.942 144.067 118.974 144.066 119.007C144.062 119.134 144.06 119.261 144.06 119.389L144.06 119.394L144.06 119.404C144.06 119.521 144.062 119.638 144.065 119.755C144.066 119.785 144.068 119.815 144.069 119.845C144.072 119.939 144.076 120.034 144.081 120.128C144.083 120.153 144.085 120.178 144.086 120.204C144.093 120.309 144.101 120.415 144.11 120.521L144.113 120.552C144.264 122.196 144.733 123.794 145.495 125.257L150.697 122.547C150.189 121.574 149.925 120.492 149.926 119.394ZM169.437 119.319C169.437 119.216 169.435 119.114 169.432 119.012C169.431 118.967 169.429 118.922 169.427 118.877C169.423 118.78 169.418 118.684 169.412 118.587C169.41 118.556 169.408 118.525 169.406 118.494C169.284 116.803 168.825 115.153 168.056 113.641C167.287 112.13 166.223 110.787 164.927 109.693L164.909 109.677C164.251 109.124 163.538 108.64 162.782 108.231L159.993 113.391C160.828 113.842 161.559 114.463 162.14 115.213C162.722 115.962 163.14 116.825 163.369 117.746C163.599 118.666 163.633 119.624 163.471 120.559C163.31 121.494 162.955 122.385 162.429 123.175L167.313 126.425C168.432 124.743 169.134 122.818 169.359 120.81L169.362 120.786C169.369 120.724 169.375 120.662 169.381 120.599C169.385 120.558 169.388 120.517 169.392 120.476C169.396 120.431 169.4 120.386 169.403 120.341C169.41 120.249 169.416 120.158 169.42 120.066C169.421 120.047 169.422 120.028 169.423 120.009C169.427 119.922 169.431 119.834 169.433 119.747L169.434 119.705C169.437 119.602 169.438 119.498 169.438 119.395C169.438 119.369 169.437 119.344 169.437 119.319Z" fill="#222222"/>
<path d="M210.433 75.5717H155.594V77.7321H210.433V75.5717Z" fill="#222222"/>
<path d="M188.679 81.6465H155.594V83.807H188.679V81.6465Z" fill="#222222"/>
<path d="M202.352 87.7219H155.594V89.8824H202.352V87.7219Z" fill="#222222"/>
<path d="M182.512 93.7969H155.594V95.9574H182.512V93.7969Z" fill="#222222"/>
<path d="M197.299 99.8717H155.594V102.032H197.299V99.8717Z" fill="#222222"/>
<path d="M150.653 77.7581C149.908 77.8546 149.071 77.9214 148.215 77.9534C147.348 77.9774 146.48 77.9407 145.618 77.8438L145.508 77.8347L145.514 77.7393C145.553 77.0144 145.539 76.2875 145.472 75.5645L145.462 75.4338L145.618 75.4187C146.454 75.3381 147.29 75.3174 148.126 75.2928C148.962 75.2672 149.798 75.2816 150.634 75.3361L150.87 75.3515L150.862 75.5645C150.834 76.3464 150.728 77.1059 150.653 77.7581ZM150.615 77.7205C150.54 76.9229 150.434 76.2326 150.405 75.5645L150.634 75.793C149.798 75.8476 148.962 75.8621 148.126 75.8363C147.29 75.8117 146.454 75.7908 145.618 75.7102L145.764 75.5645C145.697 76.2875 145.683 77.0144 145.723 77.7393L145.618 77.6349C146.421 77.5385 147.229 77.5019 148.037 77.5252C148.853 77.5573 149.687 77.624 150.615 77.7205ZM150.653 83.8332C149.908 83.9295 149.071 83.9964 148.215 84.0283C147.348 84.0523 146.48 84.0157 145.618 83.9187L145.508 83.9097L145.514 83.8142C145.553 83.0893 145.539 82.3624 145.472 81.6395L145.462 81.5089L145.618 81.4937C146.454 81.4132 147.29 81.3923 148.126 81.3677C148.962 81.3422 149.798 81.3566 150.634 81.411L150.87 81.4265L150.862 81.6395C150.834 82.4213 150.728 83.1809 150.653 83.8332ZM150.615 83.7954C150.54 82.9978 150.434 82.3075 150.405 81.6395L150.634 81.868C149.798 81.9226 148.962 81.937 148.126 81.9112C147.29 81.8866 146.454 81.8657 145.618 81.7852L145.764 81.6395C145.697 82.3624 145.683 83.0893 145.723 83.8142L145.618 83.7099C146.421 83.6134 147.229 83.5768 148.037 83.6002C148.853 83.6322 149.687 83.6991 150.615 83.7954ZM150.653 89.9082C149.908 90.0046 149.071 90.0715 148.215 90.1034C147.348 90.1274 146.48 90.0908 145.618 89.9938L145.508 89.9848L145.514 89.8893C145.553 89.1643 145.539 88.4375 145.472 87.7145L145.462 87.5839L145.618 87.5689C146.454 87.4883 147.29 87.4674 148.126 87.4428C148.962 87.4172 149.798 87.4317 150.634 87.4861L150.87 87.5015L150.862 87.7146C150.834 88.4965 150.728 89.2559 150.653 89.9082ZM150.615 89.8705C150.54 89.0729 150.434 88.3826 150.405 87.7145L150.634 87.943C149.798 87.9978 148.962 88.0122 148.126 87.9863C147.29 87.9617 146.454 87.9408 145.618 87.8604L145.764 87.7145C145.697 88.4375 145.683 89.1643 145.723 89.8893L145.618 89.7849C146.421 89.6885 147.229 89.6519 148.037 89.6753C148.853 89.7072 149.687 89.7741 150.615 89.8705ZM150.653 95.9833C149.908 96.0796 149.071 96.1465 148.215 96.1785C147.348 96.2025 146.48 96.1658 145.618 96.0689L145.508 96.0599L145.514 95.9643C145.553 95.2394 145.539 94.5126 145.472 93.7897L145.462 93.659L145.618 93.6439C146.454 93.5633 147.29 93.5424 148.126 93.5178C148.962 93.4922 149.798 93.5067 150.634 93.5611L150.87 93.5766L150.862 93.7897C150.834 94.5715 150.728 95.331 150.653 95.9833ZM150.615 95.9456C150.54 95.148 150.434 94.4576 150.405 93.7897L150.634 94.0181C149.798 94.0728 148.962 94.0872 148.126 94.0613C147.29 94.0367 146.454 94.016 145.618 93.9354L145.764 93.7897C145.697 94.5126 145.683 95.2394 145.723 95.9643L145.618 95.86C146.421 95.7636 147.229 95.7269 148.037 95.7504C148.853 95.7823 149.687 95.8492 150.615 95.9456ZM150.653 102.058C149.908 102.155 149.071 102.222 148.215 102.254C147.348 102.278 146.48 102.241 145.618 102.144L145.508 102.135L145.514 102.039C145.553 101.314 145.539 100.588 145.472 99.8648L145.462 99.734L145.618 99.7189C146.454 99.6383 147.29 99.6175 148.126 99.5929C148.962 99.5673 149.798 99.5817 150.634 99.6361L150.87 99.6516L150.862 99.8648C150.834 100.647 150.728 101.406 150.653 102.058ZM150.615 102.021C150.54 101.223 150.434 100.533 150.405 99.8648L150.634 100.093C149.798 100.148 148.962 100.162 148.126 100.136C147.29 100.112 146.454 100.091 145.618 100.01L145.764 99.8648C145.697 100.588 145.683 101.315 145.723 102.039L145.618 101.935C146.421 101.839 147.229 101.802 148.037 101.825C148.853 101.858 149.687 101.924 150.615 102.021ZM210.451 83.8258L196.829 83.9627C192.27 83.9987 187.709 84.0588 183.118 84.0593L176.239 84.0778L169.352 84.059L155.594 83.9706L155.429 83.9696L155.43 83.807L155.448 81.6468L155.449 81.5005L155.594 81.501C160.164 81.517 164.734 81.5771 169.304 81.5569C173.873 81.5518 178.443 81.474 183.013 81.4345L189.868 81.4075L196.723 81.4359L203.578 81.488C205.863 81.5054 208.147 81.5371 210.432 81.5832L210.497 81.5843L210.496 81.6468L210.451 83.8258ZM210.414 83.7882L210.369 81.6468L210.432 81.7104C208.147 81.7532 205.863 81.7849 203.578 81.8055L196.723 81.8577L189.868 81.8861L183.013 81.859C178.443 81.8196 173.873 81.7418 169.304 81.7367C164.734 81.7164 160.164 81.7765 155.594 81.7925L155.74 81.6468L155.757 83.8071L155.594 83.6436L169.256 83.5551L176.078 83.5363L182.909 83.5549C187.457 83.5555 192.036 83.6154 196.617 83.6516L210.414 83.7882ZM210.451 89.9009L196.829 90.0377C192.27 90.0738 187.709 90.1338 183.118 90.1344L176.239 90.1529L169.352 90.1341L155.594 90.0456L155.429 90.0447L155.43 89.8821L155.448 87.7219L155.449 87.5755L155.594 87.576C160.164 87.5921 164.734 87.6522 169.304 87.632C173.873 87.6267 178.443 87.5491 183.013 87.5095L189.868 87.4824L196.723 87.5109L203.578 87.563C205.863 87.5804 208.147 87.6121 210.432 87.6581L210.497 87.6594L210.496 87.7219L210.451 89.9009ZM210.414 89.8633L210.369 87.7219L210.432 87.7854C208.147 87.8283 205.863 87.86 203.578 87.8805L196.723 87.9328L189.868 87.9611L183.013 87.934C178.443 87.8945 173.873 87.8168 169.304 87.8116C164.734 87.7914 160.164 87.8515 155.594 87.8675L155.74 87.7219L155.757 89.8821L155.594 89.7186L169.256 89.6301L176.078 89.6113L182.909 89.63C187.457 89.6305 192.036 89.6904 196.617 89.7266L210.414 89.8633ZM210.451 95.976L196.829 96.1127C192.27 96.1489 187.709 96.2087 183.118 96.2093L176.239 96.228L169.352 96.2092L155.594 96.1207L155.429 96.1196L155.43 95.9572L155.448 93.7969L155.449 93.6505L155.594 93.6511C160.164 93.6671 164.734 93.7272 169.304 93.7071C173.873 93.7018 178.443 93.6241 183.013 93.5846L189.868 93.5575L196.723 93.5859L203.578 93.6381C205.863 93.6555 208.147 93.6872 210.432 93.7332L210.497 93.7345L210.496 93.7969L210.451 95.976ZM210.414 95.9384L210.369 93.7969L210.432 93.8605C208.147 93.9033 205.863 93.935 203.578 93.9556L196.723 94.0077L189.868 94.0361L183.013 94.0091C178.443 93.9696 173.873 93.8919 169.304 93.8866C164.734 93.8665 160.164 93.9266 155.594 93.9426L155.74 93.7969L155.757 95.9572L155.594 95.7937L169.255 95.7052L176.078 95.6864L182.909 95.7051C187.457 95.7056 192.036 95.7655 196.617 95.8017L210.414 95.9384ZM210.451 102.051L196.829 102.188C192.27 102.224 187.709 102.284 183.118 102.284L176.239 102.303L169.352 102.284L155.594 102.196L155.429 102.195L155.43 102.032L155.448 99.872L155.449 99.7256L155.594 99.7261C160.164 99.7422 164.734 99.8023 169.304 99.782C173.873 99.7769 178.443 99.699 183.013 99.6597L189.868 99.6326L196.723 99.6609L203.578 99.7132C205.863 99.7306 208.147 99.7623 210.432 99.8083L210.497 99.8095L210.496 99.872L210.451 102.051ZM210.414 102.013L210.369 99.872L210.432 99.9354C208.147 99.9784 205.863 100.01 203.578 100.031L196.723 100.083L189.868 100.111L183.013 100.084C178.443 100.045 173.873 99.9668 169.304 99.9617C164.734 99.9415 160.164 100.002 155.594 100.018L155.74 99.872L155.757 102.032L155.594 101.869L169.255 101.78L176.078 101.761L182.909 101.78C187.457 101.781 192.036 101.84 196.617 101.877L210.414 102.013Z" fill="#222222"/>
</svg>
