<svg width="101" height="26" viewBox="0 0 101 26" fill="none" xmlns="http://www.w3.org/2000/svg">
<path d="M3.65625 26H22.3438C22.4515 26 22.5548 25.9572 22.631 25.881C22.7072 25.8048 22.75 25.7015 22.75 25.5938V3.65625C22.75 3.54851 22.7072 3.44517 22.631 3.36899C22.5548 3.2928 22.4515 3.25 22.3438 3.25H17.0625V2.84375C17.0625 2.73601 17.0197 2.63267 16.9435 2.55649C16.8673 2.4803 16.764 2.4375 16.6562 2.4375H14.625C14.625 1.54131 13.8962 0.8125 13 0.8125C12.1038 0.8125 11.375 1.54131 11.375 2.4375H9.34375C9.23601 2.4375 9.13267 2.4803 9.05649 2.55649C8.9803 2.63267 8.9375 2.73601 8.9375 2.84375V3.25H3.65625C3.54851 3.25 3.44517 3.2928 3.36899 3.36899C3.2928 3.44517 3.25 3.54851 3.25 3.65625V25.5938C3.25 25.7015 3.2928 25.8048 3.36899 25.881C3.44517 25.9572 3.54851 26 3.65625 26ZM11.856 3.25C11.9209 3.24978 11.9849 3.23403 12.0425 3.20406C12.1001 3.1741 12.1497 3.13079 12.1871 3.07774C12.2246 3.0247 12.2488 2.96347 12.2578 2.89916C12.2667 2.83485 12.2602 2.76933 12.2387 2.70806C12.2064 2.62143 12.1891 2.52994 12.1875 2.4375C12.1875 1.98981 12.5523 1.625 13 1.625C13.4477 1.625 13.8125 1.98981 13.8125 2.4375C13.8125 2.522 13.7954 2.61056 13.7613 2.70806C13.7398 2.76933 13.7333 2.83485 13.7422 2.89916C13.7512 2.96347 13.7754 3.0247 13.8129 3.07774C13.8503 3.13079 13.8999 3.1741 13.9575 3.20406C14.0151 3.23403 14.0791 3.24978 14.144 3.25H16.25V4.875H9.75V3.25H11.856ZM4.0625 4.0625H8.9375V5.28125C8.9375 5.38899 8.9803 5.49233 9.05649 5.56851C9.13267 5.6447 9.23601 5.6875 9.34375 5.6875H16.6562C16.764 5.6875 16.8673 5.6447 16.9435 5.56851C17.0197 5.49233 17.0625 5.38899 17.0625 5.28125V4.0625H21.9375V25.1875H4.0625V4.0625Z" fill="#222222"/>
<path d="M20.7188 4.875H18.2812C18.1735 4.875 18.0702 4.9178 17.994 4.99399C17.9178 5.07017 17.875 5.17351 17.875 5.28125C17.875 5.38899 17.9178 5.49233 17.994 5.56851C18.0702 5.6447 18.1735 5.6875 18.2812 5.6875H20.3125V23.5625H5.6875V5.6875H7.71875C7.82649 5.6875 7.92983 5.6447 8.00601 5.56851C8.0822 5.49233 8.125 5.38899 8.125 5.28125C8.125 5.17351 8.0822 5.07017 8.00601 4.99399C7.92983 4.9178 7.82649 4.875 7.71875 4.875H5.28125C5.17351 4.875 5.07017 4.9178 4.99399 4.99399C4.9178 5.07017 4.875 5.17351 4.875 5.28125V23.9688C4.875 24.0765 4.9178 24.1798 4.99399 24.256C5.07017 24.3322 5.17351 24.375 5.28125 24.375H20.7188C20.8265 24.375 20.9298 24.3322 21.006 24.256C21.0822 24.1798 21.125 24.0765 21.125 23.9688V5.28125C21.125 5.17351 21.0822 5.07017 21.006 4.99399C20.9298 4.9178 20.8265 4.875 20.7188 4.875Z" fill="#222222"/>
<path d="M7.7545 8.24929L7.98688 9.09917C7.99582 9.13329 8.02588 9.15279 8.04294 9.18204V9.63298C8.04294 10.1091 8.242 10.5389 8.55969 10.8477V11.2694L7.42869 11.6935C7.15515 11.7972 6.91954 11.9816 6.753 12.2221C6.58645 12.4626 6.49682 12.748 6.49594 13.0406V14.2187C6.49594 14.3265 6.53874 14.4298 6.61493 14.506C6.69112 14.5822 6.79445 14.625 6.90219 14.625C7.00994 14.625 7.11327 14.5822 7.18945 14.506C7.26564 14.4298 7.30844 14.3265 7.30844 14.2187V13.0406C7.30844 12.7814 7.47175 12.5458 7.71469 12.4548L8.14857 12.2923C8.35271 12.5104 8.5991 12.6847 8.87273 12.8045C9.14637 12.9244 9.44153 12.9873 9.74025 12.9894C10.3513 12.9894 10.92 12.7254 11.3344 12.2882L11.7772 12.454C12.0201 12.545 12.1834 12.7806 12.1834 13.0398V14.2179C12.1834 14.3257 12.2262 14.429 12.3024 14.5052C12.3786 14.5814 12.4819 14.6242 12.5897 14.6242C12.6974 14.6242 12.8008 14.5814 12.877 14.5052C12.9531 14.429 12.9959 14.3257 12.9959 14.2179V13.0398C12.9959 12.4442 12.6214 11.9023 12.0632 11.6927L10.92 11.2637V10.8469C11.2369 10.5389 11.4351 10.1091 11.4351 9.63298V9.21048C11.4612 9.16965 11.4799 9.12455 11.4904 9.07723L11.7317 7.95679C11.7821 7.68379 11.7211 7.40754 11.5611 7.18004C11.401 6.95254 11.1621 6.80223 10.8875 6.75673L9.41688 6.51136C9.17737 6.4711 8.93136 6.51807 8.72353 6.64375C8.5157 6.76943 8.35984 6.96548 8.28425 7.19629C8.08641 7.28173 7.92493 7.43404 7.82808 7.62655C7.73123 7.81907 7.70518 8.03951 7.7545 8.24929ZM10.6226 9.63298C10.6226 9.95554 10.4406 10.2261 10.1814 10.3805C10.1343 10.4081 10.0888 10.4374 10.0384 10.456C9.96693 10.4801 9.89268 10.4951 9.81744 10.5007C9.76474 10.5056 9.7117 10.5056 9.659 10.5007C9.58428 10.4952 9.51056 10.4802 9.43963 10.456C9.39007 10.4382 9.34457 10.4089 9.29825 10.3813C9.16541 10.3062 9.0546 10.1976 8.9769 10.0663C8.89919 9.93496 8.85731 9.78555 8.85544 9.63298V9.39817H10.6226V9.63298ZM9.03419 11.96L9.10894 11.9315C9.18629 11.9025 9.25292 11.8505 9.29996 11.7825C9.34699 11.7146 9.37219 11.6339 9.37219 11.5513V11.2889L9.38032 11.2897C9.4965 11.3149 9.61594 11.3295 9.73944 11.3295L9.75163 11.3287C9.87107 11.3279 9.98725 11.314 10.1002 11.2897L10.1083 11.2889V11.5521C10.1083 11.73 10.2237 11.8763 10.3829 11.9315L10.3846 11.9324L10.452 11.9575C10.2337 12.0734 9.9905 12.1342 9.7434 12.1346C9.4963 12.135 9.25284 12.0751 9.03419 11.96ZM8.56375 7.97467C8.57271 7.96299 8.58429 7.95359 8.59756 7.94724C8.61083 7.94088 8.62542 7.93776 8.64013 7.93811C8.86438 7.93811 9.04638 7.73986 9.04638 7.51561C9.04638 7.43273 9.09188 7.38235 9.11869 7.3596C9.14112 7.33976 9.16778 7.32527 9.19663 7.31725C9.22549 7.30923 9.2558 7.30787 9.28525 7.31329L10.7559 7.55867C10.8339 7.57167 10.8778 7.62042 10.8973 7.64804C10.9291 7.69159 10.943 7.74566 10.9363 7.79917L10.7664 8.58567H8.68969L8.54425 8.05673C8.54091 8.04248 8.54093 8.02764 8.54431 8.0134C8.5477 7.99915 8.55435 7.98589 8.56375 7.97467ZM14.2188 9.74998H19.0938C19.2015 9.74998 19.3048 9.70718 19.381 9.63099C19.4572 9.55481 19.5 9.45147 19.5 9.34373V7.71873C19.5 7.61099 19.4572 7.50765 19.381 7.43147C19.3048 7.35528 19.2015 7.31248 19.0938 7.31248H14.2188C14.111 7.31248 14.0077 7.35528 13.9315 7.43147C13.8553 7.50765 13.8125 7.61099 13.8125 7.71873V9.34373C13.8125 9.45147 13.8553 9.55481 13.9315 9.63099C14.0077 9.70718 14.111 9.74998 14.2188 9.74998ZM14.625 8.12498H18.6875V8.93748H14.625V8.12498ZM19.5 15.8437C19.5 15.736 19.4572 15.6327 19.381 15.5565C19.3048 15.4803 19.2015 15.4375 19.0938 15.4375H6.90625C6.79851 15.4375 6.69518 15.4803 6.61899 15.5565C6.5428 15.6327 6.5 15.736 6.5 15.8437V17.4687C6.5 17.5765 6.5428 17.6798 6.61899 17.756C6.69518 17.8322 6.79851 17.875 6.90625 17.875H19.0938C19.2015 17.875 19.3048 17.8322 19.381 17.756C19.4572 17.6798 19.5 17.5765 19.5 17.4687V15.8437ZM18.6875 17.0625H7.3125V16.25H18.6875V17.0625ZM19.0938 10.5625H16.6563C16.5485 10.5625 16.4452 10.6053 16.369 10.6815C16.2928 10.7577 16.25 10.861 16.25 10.9687C16.25 11.0765 16.2928 11.1798 16.369 11.256C16.4452 11.3322 16.5485 11.375 16.6563 11.375H19.0938C19.2015 11.375 19.3048 11.3322 19.381 11.256C19.4572 11.1798 19.5 11.0765 19.5 10.9687C19.5 10.861 19.4572 10.7577 19.381 10.6815C19.3048 10.6053 19.2015 10.5625 19.0938 10.5625ZM14.2188 11.375H15.0313C15.139 11.375 15.2423 11.3322 15.3185 11.256C15.3947 11.1798 15.4375 11.0765 15.4375 10.9687C15.4375 10.861 15.3947 10.7577 15.3185 10.6815C15.2423 10.6053 15.139 10.5625 15.0313 10.5625H14.2188C14.111 10.5625 14.0077 10.6053 13.9315 10.6815C13.8553 10.7577 13.8125 10.861 13.8125 10.9687C13.8125 11.0765 13.8553 11.1798 13.9315 11.256C14.0077 11.3322 14.111 11.375 14.2188 11.375ZM16.6563 18.6875H8.53125C8.42351 18.6875 8.32018 18.7303 8.24399 18.8065C8.1678 18.8827 8.125 18.986 8.125 19.0937C8.125 19.2015 8.1678 19.3048 8.24399 19.381C8.32018 19.4572 8.42351 19.5 8.53125 19.5H16.6563C16.764 19.5 16.8673 19.4572 16.9435 19.381C17.0197 19.3048 17.0625 19.2015 17.0625 19.0937C17.0625 18.986 17.0197 18.8827 16.9435 18.8065C16.8673 18.7303 16.764 18.6875 16.6563 18.6875ZM7.19063 18.8085C7.11439 18.7347 7.0124 18.6934 6.90625 18.6934C6.8001 18.6934 6.69812 18.7347 6.62188 18.8085C6.58287 18.845 6.55188 18.8892 6.5309 18.9383C6.50991 18.9874 6.49939 19.0403 6.5 19.0937C6.5 19.1498 6.50813 19.1994 6.5325 19.2473C6.54875 19.2969 6.58125 19.3448 6.62188 19.3773C6.65438 19.4179 6.70313 19.4504 6.75188 19.4667C6.80063 19.4919 6.84938 19.5 6.90625 19.5C6.96313 19.5 7.01188 19.4919 7.06063 19.4675C7.11111 19.4497 7.15597 19.4189 7.19063 19.3781C7.23125 19.3456 7.26375 19.2969 7.28 19.2481C7.30438 19.1994 7.3125 19.1498 7.3125 19.0937C7.3125 18.9881 7.27188 18.8825 7.19063 18.8085ZM16.6563 20.3125H8.53125C8.42351 20.3125 8.32018 20.3553 8.24399 20.4315C8.1678 20.5077 8.125 20.611 8.125 20.7187C8.125 20.8265 8.1678 20.9298 8.24399 21.006C8.32018 21.0822 8.42351 21.125 8.53125 21.125H16.6563C16.764 21.125 16.8673 21.0822 16.9435 21.006C17.0197 20.9298 17.0625 20.8265 17.0625 20.7187C17.0625 20.611 17.0197 20.5077 16.9435 20.4315C16.8673 20.3553 16.764 20.3125 16.6563 20.3125ZM7.19063 20.4335C7.11439 20.3597 7.0124 20.3184 6.90625 20.3184C6.8001 20.3184 6.69812 20.3597 6.62188 20.4335C6.58287 20.47 6.55188 20.5142 6.5309 20.5633C6.50991 20.6124 6.49939 20.6653 6.5 20.7187C6.5 20.8325 6.54063 20.93 6.62188 21.0031C6.695 21.0844 6.80063 21.125 6.90625 21.125C6.96313 21.125 7.01188 21.1169 7.06063 21.0925C7.11111 21.0747 7.15597 21.0439 7.19063 21.0031C7.23125 20.9706 7.26375 20.9219 7.28 20.8731C7.30438 20.8244 7.3125 20.7748 7.3125 20.7187C7.3125 20.6131 7.27188 20.5075 7.19063 20.4335ZM16.6563 21.9375H8.53125C8.42351 21.9375 8.32018 21.9803 8.24399 22.0565C8.1678 22.1327 8.125 22.236 8.125 22.3437C8.125 22.4515 8.1678 22.5548 8.24399 22.631C8.32018 22.7072 8.42351 22.75 8.53125 22.75H16.6563C16.764 22.75 16.8673 22.7072 16.9435 22.631C17.0197 22.5548 17.0625 22.4515 17.0625 22.3437C17.0625 22.236 17.0197 22.1327 16.9435 22.0565C16.8673 21.9803 16.764 21.9375 16.6563 21.9375ZM19.0938 18.6875H18.2813C18.1735 18.6875 18.0702 18.7303 17.994 18.8065C17.9178 18.8827 17.875 18.986 17.875 19.0937C17.875 19.2015 17.9178 19.3048 17.994 19.381C18.0702 19.4572 18.1735 19.5 18.2813 19.5H19.0938C19.2015 19.5 19.3048 19.4572 19.381 19.381C19.4572 19.3048 19.5 19.2015 19.5 19.0937C19.5 18.986 19.4572 18.8827 19.381 18.8065C19.3048 18.7303 19.2015 18.6875 19.0938 18.6875ZM19.0938 20.3125H18.2813C18.1735 20.3125 18.0702 20.3553 17.994 20.4315C17.9178 20.5077 17.875 20.611 17.875 20.7187C17.875 20.8265 17.9178 20.9298 17.994 21.006C18.0702 21.0822 18.1735 21.125 18.2813 21.125H19.0938C19.2015 21.125 19.3048 21.0822 19.381 21.006C19.4572 20.9298 19.5 20.8265 19.5 20.7187C19.5 20.611 19.4572 20.5077 19.381 20.4315C19.3048 20.3553 19.2015 20.3125 19.0938 20.3125ZM19.0938 21.9375H18.2813C18.1735 21.9375 18.0702 21.9803 17.994 22.0565C17.9178 22.1327 17.875 22.236 17.875 22.3437C17.875 22.4515 17.9178 22.5548 17.994 22.631C18.0702 22.7072 18.1735 22.75 18.2813 22.75H19.0938C19.2015 22.75 19.3048 22.7072 19.381 22.631C19.4572 22.5548 19.5 22.4515 19.5 22.3437C19.5 22.236 19.4572 22.1327 19.381 22.0565C19.3048 21.9803 19.2015 21.9375 19.0938 21.9375ZM6.75188 21.97C6.70313 21.9862 6.65438 22.0187 6.62188 22.0585C6.54063 22.1325 6.5 22.2381 6.5 22.3437C6.5 22.4494 6.54063 22.555 6.62188 22.6281C6.695 22.7094 6.80063 22.75 6.90625 22.75C7.01188 22.75 7.1175 22.7094 7.19063 22.6281C7.27188 22.555 7.3125 22.4494 7.3125 22.3437C7.3125 22.2381 7.27188 22.1325 7.19063 22.0585C7.1355 22.0004 7.06378 21.9607 6.98526 21.9449C6.90674 21.929 6.82524 21.9378 6.75188 21.97ZM14.2188 13H19.0938C19.2015 13 19.3048 12.9572 19.381 12.881C19.4572 12.8048 19.5 12.7015 19.5 12.5937C19.5 12.486 19.4572 12.3827 19.381 12.3065C19.3048 12.2303 19.2015 12.1875 19.0938 12.1875H14.2188C14.111 12.1875 14.0077 12.2303 13.9315 12.3065C13.8553 12.3827 13.8125 12.486 13.8125 12.5937C13.8125 12.7015 13.8553 12.8048 13.9315 12.881C14.0077 12.9572 14.111 13 14.2188 13ZM14.2188 14.625H17.4688C17.5765 14.625 17.6798 14.5822 17.756 14.506C17.8322 14.4298 17.875 14.3265 17.875 14.2187C17.875 14.111 17.8322 14.0077 17.756 13.9315C17.6798 13.8553 17.5765 13.8125 17.4688 13.8125H14.2188C14.111 13.8125 14.0077 13.8553 13.9315 13.9315C13.8553 14.0077 13.8125 14.111 13.8125 14.2187C13.8125 14.3265 13.8553 14.4298 13.9315 14.506C14.0077 14.5822 14.111 14.625 14.2188 14.625Z" fill="#222222"/>
<path d="M36.24 20.74C34.12 20.74 32.3533 20.04 30.94 18.64C29.54 17.2267 28.84 15.48 28.84 13.4C28.84 11.32 29.54 9.58 30.94 8.18C32.3533 6.76667 34.12 6.06 36.24 6.06C37.92 6.06 39.3867 6.54 40.64 7.5C41.9067 8.44667 42.72 9.63333 43.08 11.06H40.56C40.2533 10.2467 39.7067 9.58667 38.92 9.08C38.1333 8.57333 37.24 8.32 36.24 8.32C34.7733 8.32 33.5667 8.80667 32.62 9.78C31.6733 10.7533 31.2 11.96 31.2 13.4C31.2 14.84 31.6733 16.0467 32.62 17.02C33.5667 17.9933 34.7733 18.48 36.24 18.48C37.24 18.48 38.1333 18.2267 38.92 17.72C39.7067 17.2133 40.2533 16.5533 40.56 15.74H43.08C42.72 17.1667 41.9067 18.36 40.64 19.32C39.3867 20.2667 37.92 20.74 36.24 20.74ZM48.2706 20.5L42.3106 6.3H44.8706L49.2906 16.92L53.6906 6.3H56.2706L50.3106 20.5H48.2706ZM59.8119 20.5V6.3H62.1519V12.18H69.1719V6.3H71.5119V20.5H69.1719V14.4H62.1519V20.5H59.8119ZM77.7719 20.7C76.2785 20.7 75.0519 20.2133 74.0919 19.24C73.1319 18.2533 72.6519 17.0067 72.6519 15.5C72.6519 13.9933 73.1252 12.7533 74.0719 11.78C75.0185 10.7933 76.2585 10.3 77.7919 10.3C79.3385 10.3 80.5852 10.84 81.5319 11.92C82.4785 12.9867 82.8985 14.36 82.7919 16.04H74.8319C74.8585 16.8133 75.1519 17.46 75.7119 17.98C76.2719 18.5 76.9852 18.76 77.8519 18.76C79.0785 18.76 79.9185 18.2933 80.3719 17.36H82.6719C82.3652 18.3333 81.7785 19.1333 80.9119 19.76C80.0452 20.3867 78.9985 20.7 77.7719 20.7ZM77.7319 12.14C77.0119 12.14 76.3919 12.3467 75.8719 12.76C75.3652 13.16 75.0385 13.7333 74.8919 14.48H80.4319C80.2719 13.7067 79.9452 13.1267 79.4519 12.74C78.9585 12.34 78.3852 12.14 77.7319 12.14ZM83.8511 20.5V10.5H86.0511V12.28C86.2378 11.72 86.5778 11.2667 87.0711 10.92C87.5778 10.5733 88.1178 10.4 88.6911 10.4C89.0378 10.4 89.3244 10.4267 89.5511 10.48V12.74C89.2311 12.62 88.8644 12.56 88.4511 12.56C87.7844 12.56 87.2178 12.8333 86.7511 13.38C86.2844 13.9133 86.0511 14.66 86.0511 15.62V20.5H83.8511ZM98.1372 19.2C97.1372 20.2 95.8972 20.7 94.4172 20.7C92.9372 20.7 91.6905 20.2 90.6772 19.2C89.6772 18.1867 89.1772 16.9533 89.1772 15.5C89.1772 14.0467 89.6772 12.82 90.6772 11.82C91.6905 10.8067 92.9372 10.3 94.4172 10.3C95.8972 10.3 97.1372 10.8067 98.1372 11.82C99.1505 12.82 99.6572 14.0467 99.6572 15.5C99.6572 16.9533 99.1505 18.1867 98.1372 19.2ZM94.4172 18.66C95.2839 18.66 95.9972 18.36 96.5572 17.76C97.1305 17.1467 97.4172 16.3933 97.4172 15.5C97.4172 14.6067 97.1305 13.86 96.5572 13.26C95.9972 12.6467 95.2839 12.34 94.4172 12.34C93.5372 12.34 92.8105 12.6467 92.2372 13.26C91.6772 13.86 91.3972 14.6067 91.3972 15.5C91.3972 16.3933 91.6772 17.1467 92.2372 17.76C92.8105 18.36 93.5372 18.66 94.4172 18.66Z" fill="#222222"/>
</svg>
